<?xml version="1.0" encoding="UTF-8"?>
<svg width="505px" height="505px" viewBox="0 0 505 505" version="1.1" xmlns="http://www.w3.org/2000/svg" xmlns:xlink="http://www.w3.org/1999/xlink">
    <!-- Generator: Sketch 52.6 (67491) - http://www.bohemiancoding.com/sketch -->
    <title>classroom</title>
    <desc>Created with Sketch.</desc>
    <g id="Page-1" stroke="none" stroke-width="1" fill="none" fill-rule="evenodd">
        <g id="classroom">
            <rect id="Rectangle" fill="#EA3959" x="7.877" y="8.271" width="488.369" height="329.255"></rect>
            <path d="M496.246,345.403 L7.877,345.403 C3.151,345.403 0,342.252 0,337.526 L0,8.271 C0,3.545 3.151,0.394 7.877,0.394 L496.246,0.394 C500.972,0.394 504.123,3.545 504.123,8.271 L504.123,337.526 C504.123,341.465 500.972,345.403 496.246,345.403 Z M15.754,329.649 L488.369,329.649 L488.369,16.148 L15.754,16.148 L15.754,329.649 Z" id="Shape" fill="#183651" fill-rule="nonzero"></path>
            <rect id="Rectangle" fill="#FFFFFF" x="39.385" y="39.778" width="425.354" height="266.24"></rect>
            <path d="M192.197,202.831 C192.197,202.831 258.363,231.188 257.575,272.936 L63.803,272.936 C63.803,272.936 49.625,244.579 130.757,201.256 L192.197,202.831 Z" id="Path" fill="#BA2D46"></path>
            <path d="M179.594,179.988 C179.594,179.988 178.806,193.379 192.985,202.831 C192.985,202.831 159.114,228.825 131.545,201.256 C131.545,201.256 140.21,194.954 140.21,177.625 L179.594,179.988 Z" id="Path" fill="#E24B71"></path>
            <path d="M194.56,153.206 C194.56,153.206 188.258,183.926 160.689,187.864 C160.689,187.864 133.12,187.076 123.667,146.116 L118.153,135.876 L118.153,112.245 L128.393,98.067 L152.811,94.916 L189.045,107.519 L200.86,131.937 L194.56,153.206 Z" id="Path" fill="#F7AEC1"></path>
            <path d="M194.56,153.206 C194.56,153.206 207.951,120.911 171.717,116.184 C171.717,116.184 157.539,117.759 144.935,102.006 C144.935,102.006 111.852,107.52 123.667,146.904 C123.667,146.904 91.372,100.43 140.996,78.375 C190.62,56.32 207.95,100.43 207.95,100.43 C207.95,100.43 218.978,133.514 194.56,153.206 Z" id="Path" fill="#173651"></path>
            <path d="M482.068,450.954 L434.806,424.96 L387.544,450.954 C378.879,455.68 373.366,465.132 373.366,475.372 L373.366,497.427 L495.458,497.427 L495.458,475.372 C496.246,465.132 490.732,455.68 482.068,450.954 Z" id="Path" fill="#F7AEC1"></path>
            <path d="M496.246,504.517 L374.154,504.517 C369.428,504.517 366.277,501.366 366.277,496.64 L366.277,474.585 C366.277,461.982 373.366,449.379 384.394,443.865 L431.656,417.871 C434.019,416.296 437.17,416.296 439.533,417.871 L486.795,443.865 C497.823,450.167 504.912,461.982 504.912,474.585 L504.912,496.64 C504.123,501.366 500.972,504.517 496.246,504.517 Z M382.031,488.763 L488.369,488.763 L488.369,474.585 C488.369,467.496 484.431,461.194 478.129,457.256 L434.806,433.625 L391.483,457.256 C385.969,461.194 382.031,467.496 382.031,474.585 L382.031,488.763 Z" id="Shape" fill="#183651" fill-rule="nonzero"></path>
            <path d="M465.526,397.391 C465.526,417.871 452.135,441.502 434.806,441.502 C417.477,441.502 404.086,417.871 404.086,397.391 C404.086,376.911 417.477,365.883 434.806,365.883 C452.135,365.883 465.526,376.911 465.526,397.391 Z" id="Path" fill="#FFFFFF"></path>
            <path d="M435.594,449.378 C413.539,449.378 396.997,421.809 396.997,397.39 C396.997,373.759 412.751,358.005 435.594,358.005 C458.437,358.005 474.191,373.759 474.191,397.39 C473.403,421.809 457.649,449.378 435.594,449.378 Z M435.594,374.548 C421.416,374.548 412.751,383.213 412.751,398.179 C412.751,415.508 424.566,434.413 435.594,434.413 C446.622,434.413 458.437,415.508 458.437,398.179 C457.649,383.212 449.772,374.548 435.594,374.548 Z" id="Shape" fill="#183651" fill-rule="nonzero"></path>
            <path d="M359.975,450.954 L312.713,424.96 L265.451,450.954 C256.786,455.68 251.273,465.132 251.273,475.372 L251.273,497.427 L374.153,497.427 L374.153,475.372 C374.154,465.132 368.64,455.68 359.975,450.954 Z" id="Path" fill="#EA3959"></path>
            <path d="M374.154,504.517 L252.062,504.517 C247.336,504.517 244.185,501.366 244.185,496.64 L244.185,474.585 C244.185,461.982 251.274,449.379 262.302,443.865 L309.564,417.871 C311.927,416.296 315.078,416.296 317.441,417.871 L364.703,443.865 C375.731,450.167 382.82,461.982 382.82,474.585 L382.82,496.64 C382.031,501.366 378.88,504.517 374.154,504.517 Z M259.938,488.763 L366.276,488.763 L366.276,474.585 C366.276,467.496 362.338,461.194 356.036,457.256 L312.713,433.625 L269.39,457.256 C263.088,460.407 259.15,467.496 259.15,474.585 L259.15,488.763 L259.938,488.763 Z" id="Shape" fill="#183651" fill-rule="nonzero"></path>
            <path d="M343.434,397.391 C343.434,417.871 330.043,441.502 312.714,441.502 C295.385,441.502 281.994,417.871 281.994,397.391 C281.994,376.911 295.385,365.883 312.714,365.883 C330.043,365.883 343.434,376.911 343.434,397.391 Z" id="Path" fill="#FFFFFF"></path>
            <path d="M313.502,449.378 C291.447,449.378 274.905,421.809 274.905,397.39 C274.905,373.759 290.659,358.005 313.502,358.005 C336.345,358.005 352.099,373.759 352.099,397.39 C351.311,421.809 335.557,449.378 313.502,449.378 Z M313.502,374.548 C299.324,374.548 290.659,383.213 290.659,398.179 C290.659,415.508 302.474,434.413 313.502,434.413 C324.53,434.413 336.345,415.508 336.345,398.179 C335.557,383.212 327.68,374.548 313.502,374.548 Z" id="Shape" fill="#183651" fill-rule="nonzero"></path>
            <path d="M237.883,450.954 L190.621,424.96 L143.359,450.954 C134.694,455.68 129.181,465.132 129.181,475.372 L129.181,497.427 L251.273,497.427 L251.273,475.372 C252.062,465.132 246.548,455.68 237.883,450.954 Z" id="Path" fill="#F7AEC1"></path>
            <path d="M252.062,504.517 L129.969,504.517 C125.243,504.517 122.092,501.366 122.092,496.64 L122.092,474.585 C122.092,461.982 129.181,449.379 140.209,443.865 L187.471,417.871 C189.834,416.296 192.985,416.296 195.348,417.871 L242.61,443.865 C253.638,450.167 260.727,461.982 260.727,474.585 L260.727,496.64 C259.938,501.366 256.788,504.517 252.062,504.517 Z M137.846,488.763 L244.184,488.763 L244.184,474.585 C244.184,467.496 240.246,461.194 233.944,457.256 L190.621,433.625 L147.298,457.256 C141.784,461.194 137.846,467.496 137.846,474.585 L137.846,488.763 Z" id="Shape" fill="#183651" fill-rule="nonzero"></path>
            <path d="M221.342,397.391 C221.342,417.871 207.951,441.502 190.622,441.502 C173.293,441.502 159.902,417.871 159.902,397.391 C159.902,376.911 173.293,365.883 190.622,365.883 C207.951,365.883 221.342,376.911 221.342,397.391 Z" id="Path" fill="#FFFFFF"></path>
            <path d="M191.409,449.378 C169.354,449.378 152.812,421.809 152.812,397.39 C152.812,373.759 168.566,358.005 191.409,358.005 C214.252,358.005 230.006,373.759 230.006,397.39 C229.218,421.809 213.465,449.378 191.409,449.378 Z M191.409,374.548 C177.231,374.548 168.566,383.213 168.566,398.179 C168.566,415.508 180.381,434.413 191.409,434.413 C202.437,434.413 214.252,415.508 214.252,398.179 C213.465,383.212 205.588,374.548 191.409,374.548 Z" id="Shape" fill="#183651" fill-rule="nonzero"></path>
            <path d="M115.791,450.954 L68.529,424.96 L21.267,450.954 C12.602,455.68 7.089,465.132 7.089,475.372 L7.089,497.427 L129.969,497.427 L129.969,475.372 C129.969,465.132 124.455,455.68 115.791,450.954 Z" id="Path" fill="#EA3959"></path>
            <path d="M129.969,504.517 L7.877,504.517 C3.151,504.517 0,501.366 0,496.64 L0,474.585 C0,461.982 7.089,449.379 18.117,443.865 L65.379,417.871 C67.742,416.296 70.893,416.296 73.256,417.871 L120.518,443.865 C131.546,450.167 138.635,461.982 138.635,474.585 L138.635,496.64 C137.846,501.366 134.695,504.517 129.969,504.517 Z M15.754,488.763 L122.092,488.763 L122.092,474.585 C122.092,467.496 118.154,461.194 111.852,457.256 L68.529,433.625 L25.206,457.256 C19.692,461.194 15.754,467.496 15.754,474.585 L15.754,488.763 Z" id="Shape" fill="#183651" fill-rule="nonzero"></path>
            <path d="M99.249,397.391 C99.249,417.871 85.858,441.502 68.529,441.502 C51.2,441.502 37.809,417.871 37.809,397.391 C37.809,376.911 51.2,365.883 68.529,365.883 C85.858,365.883 99.249,376.911 99.249,397.391 Z" id="Path" fill="#FFFFFF"></path>
            <path d="M69.317,449.378 C47.262,449.378 30.72,421.809 30.72,397.39 C30.72,373.759 46.474,358.005 69.317,358.005 C92.16,358.005 107.914,373.759 107.914,397.39 C107.126,421.809 91.372,449.378 69.317,449.378 Z M69.317,374.548 C55.139,374.548 46.474,383.213 46.474,398.179 C46.474,415.508 58.289,434.413 69.317,434.413 C80.345,434.413 92.16,415.508 92.16,398.179 C91.372,383.212 83.495,374.548 69.317,374.548 Z" id="Shape" fill="#183651" fill-rule="nonzero"></path>
            <rect id="Rectangle" fill="#183651" x="291.446" y="79.163" width="15.754" height="15.754"></rect>
            <rect id="Rectangle" fill="#183651" x="335.557" y="79.163" width="15.754" height="15.754"></rect>
            <rect id="Rectangle" fill="#183651" x="380.455" y="79.163" width="15.754" height="15.754"></rect>
            <rect id="Rectangle" fill="#183651" x="425.354" y="79.163" width="15.754" height="15.754"></rect>
            <rect id="Rectangle" fill="#183651" x="291.446" y="136.665" width="149.662" height="15.754"></rect>
            <rect id="Rectangle" fill="#183651" x="291.446" y="193.378" width="149.662" height="15.754"></rect>
            <rect id="Rectangle" fill="#183651" x="291.446" y="250.092" width="149.662" height="15.754"></rect>
        </g>
    </g>
</svg>