<?xml version="1.0" encoding="UTF-8"?>
<svg width="505px" height="503px" viewBox="0 0 505 503" version="1.1" xmlns="http://www.w3.org/2000/svg" xmlns:xlink="http://www.w3.org/1999/xlink">
    <!-- Generator: Sketch 52.6 (67491) - http://www.bohemiancoding.com/sketch -->
    <title>portfolio</title>
    <desc>Created with Sketch.</desc>
    <g id="Page-1" stroke="none" stroke-width="1" fill="none" fill-rule="evenodd">
        <g id="portfolio" transform="translate(0.000000, -1.000000)">
            <path d="M393.09,8.893 L130.001,8.893 L7.909,131.773 L7.909,456.302 C7.909,477.57 25.238,495.687 47.294,495.687 L393.09,495.687 C414.358,495.687 432.475,478.358 432.475,456.302 L432.475,48.278 C431.687,27.01 414.358,8.893 393.09,8.893 Z" id="Path" fill="#E24B71"></path>
            <path d="M393.09,503.564 L47.293,503.564 C21.299,503.564 0.031,482.296 0.031,456.302 L0.031,131.773 C0.031,129.41 0.819,127.835 2.394,126.259 L124.487,3.38 C126.062,1.805 127.638,1.017 130.001,1.017 L392.303,1.017 C418.297,1.017 439.565,22.285 439.565,48.279 L439.565,456.304 C439.564,482.297 418.297,503.564 393.09,503.564 Z M15.786,134.924 L15.786,456.302 C15.786,473.631 29.964,487.81 47.294,487.81 L393.09,487.81 C410.419,487.81 424.598,473.632 424.598,456.302 L424.598,48.278 C424.598,30.949 410.42,16.77 393.09,16.77 L133.152,16.77 L15.786,134.924 Z" id="Shape" fill="#183651" fill-rule="nonzero"></path>
            <g id="Group" transform="translate(7.000000, 8.000000)" fill="#FFFFFF">
                <path d="M40.293,456.18 C36.355,456.18 32.416,453.029 32.416,448.303 L32.416,136.377 L136.392,32.401 L386.09,32.401 C390.028,32.401 393.967,35.552 393.967,40.278 L393.967,448.303 C393.967,452.241 390.816,456.18 386.09,456.18 L40.293,456.18 Z" id="Path"></path>
                <path d="M0.909,123.773 L83.617,123.773 C104.885,123.773 123.002,106.444 123.002,84.388 L123.002,0.893 L0.909,123.773 Z" id="Path"></path>
            </g>
            <path d="M90.617,139.65 L7.909,139.65 C4.758,139.65 1.607,138.075 0.82,134.924 C-0.755,131.773 0.032,128.622 2.395,126.259 L124.487,3.38 C126.85,1.017 130.001,0.229 133.152,1.805 C136.303,3.38 137.878,5.743 137.878,8.894 L137.878,91.602 C137.878,118.383 116.61,139.65 90.617,139.65 Z M26.813,123.897 L90.616,123.897 C107.945,123.897 122.124,109.719 122.124,92.389 L122.124,27.798 L26.813,123.897 Z" id="Shape" fill="#183651" fill-rule="nonzero"></path>
            <path d="M294.629,284.586 L434.838,424.795 C449.016,438.973 471.86,438.973 486.038,424.795 C500.216,410.617 500.216,387.773 486.038,373.595 L345.829,233.386 L294.629,284.586 Z" id="Path" fill="#FFFFFF"></path>
            <path d="M429.324,430.309 L289.115,290.1 C285.964,286.949 285.964,282.223 289.115,279.072 L340.315,227.872 C343.466,224.721 348.192,224.721 351.343,227.872 L491.552,368.081 C508.881,385.41 508.881,412.979 491.552,430.309 C474.223,447.638 446.653,447.638 429.324,430.309 Z M305.657,284.586 L440.352,419.281 C451.38,430.309 469.497,430.309 480.524,419.281 C491.552,408.253 491.552,390.136 480.524,379.109 L345.829,244.413 L305.657,284.586 Z" id="Shape" fill="#183651" fill-rule="nonzero"></path>
            <circle id="Oval" fill="#BA2D46" cx="256.82" cy="195.577" r="128.394"></circle>
            <path d="M256.82,331.847 C181.202,331.847 120.549,270.407 120.549,195.576 C120.549,120.745 181.989,59.305 256.82,59.305 C332.438,59.305 393.091,120.745 393.091,195.576 C393.09,271.195 332.438,331.847 256.82,331.847 Z M256.82,75.06 C189.866,75.06 136.303,129.411 136.303,195.577 C136.303,261.743 190.654,316.094 256.82,316.094 C322.986,316.094 377.337,261.743 377.337,195.577 C377.337,129.411 323.773,75.06 256.82,75.06 Z" id="Shape" fill="#183651" fill-rule="nonzero"></path>
            <circle id="Oval" fill="#F7AEC1" cx="256.82" cy="195.577" r="96.886"></circle>
            <g id="Group" transform="translate(61.000000, 312.000000)" fill="#183651">
                <rect id="Rectangle" x="0.472" y="109.644" width="143.36" height="15.754"></rect>
                <rect id="Rectangle" x="0.472" y="78.137" width="143.36" height="15.754"></rect>
                <rect id="Rectangle" x="0.472" y="46.629" width="143.36" height="15.754"></rect>
                <rect id="Rectangle" transform="translate(324.177598, 12.054688) rotate(-135.000000) translate(-324.177598, -12.054688) " x="316.300674" y="4.17776384" width="15.7538489" height="15.7538489"></rect>
                <rect id="Rectangle" transform="translate(358.520294, 46.835408) rotate(-135.000000) translate(-358.520294, -46.835408) " x="350.643369" y="38.9584834" width="15.7538489" height="15.7538489"></rect>
                <rect id="Rectangle" transform="translate(392.911761, 80.502303) rotate(-135.000000) translate(-392.911761, -80.502303) " x="385.034836" y="72.6253787" width="15.7538489" height="15.7538489"></rect>
            </g>
            <path d="M256.82,293.25 C289.115,293.25 318.26,277.496 335.589,252.29 C330.075,238.899 317.472,228.659 301.718,227.872 C291.478,244.414 274.936,254.654 256.032,254.654 C237.128,254.654 221.374,244.414 210.346,227.872 C195.38,228.66 181.989,238.112 176.475,252.29 C195.38,276.709 224.524,293.25 256.82,293.25 Z" id="Path" fill="#BA2D46"></path>
            <ellipse id="Oval" fill="#FFFFFF" cx="256.82" cy="181.398" rx="39.385" ry="53.563"></ellipse>
            <path d="M299.355,143.589 C298.567,133.349 290.69,127.047 282.026,122.321 C266.272,114.444 246.58,114.444 230.826,122.321 C222.161,127.047 215.072,133.349 213.497,143.589 C213.497,143.589 201.682,152.254 217.435,189.275 C217.435,189.275 213.497,173.521 225.312,164.857 C225.312,164.857 219.798,147.528 234.764,147.528 C234.764,147.528 247.367,154.617 255.244,153.042 C263.121,154.617 275.724,147.528 275.724,147.528 C291.478,147.528 285.176,164.857 285.176,164.857 C296.991,174.309 293.053,189.275 293.053,189.275 C311.958,152.253 299.355,143.589 299.355,143.589 Z" id="Path" fill="#173651"></path>
        </g>
    </g>
</svg>