<?xml version="1.0" encoding="UTF-8"?>
<svg width="1366px" height="979px" viewBox="0 0 1366 979" version="1.1" xmlns="http://www.w3.org/2000/svg" xmlns:xlink="http://www.w3.org/1999/xlink">
    <!-- Generator: Sketch 52.6 (67491) - http://www.bohemiancoding.com/sketch -->
    <title>Icon</title>
    <desc>Created with Sketch.</desc>
    <defs>
        <linearGradient x1="50%" y1="0%" x2="50%" y2="100%" id="linearGradient-1">
            <stop stop-color="#F48128" offset="0%"></stop>
            <stop stop-color="#F38630" offset="100%"></stop>
        </linearGradient>
    </defs>
    <g id="Page-1" stroke="none" stroke-width="1" fill="none" fill-rule="evenodd">
        <g id="Icon" transform="translate(683.000000, 489.500000) rotate(90.000000) translate(-683.000000, -489.500000) translate(193.500000, -193.500000)">
            <rect id="Rectangle" fill="#E6074F" x="41.5" y="18.5" width="895" height="1274"></rect>
            <g id="sand-castle-(1)" transform="translate(520.243193, 500.043625) rotate(-113.000000) translate(-520.243193, -500.043625) translate(331.243193, 308.043625)">
                <path d="M338.16578,215.09016 L304.419311,195.567199 C291.996401,188.424413 276.158411,192.679793 268.957994,205.094169 L266.103162,210.05308 L266.103162,279.214003 L318.021179,279.214003 L318.021179,302.103162 L347.646164,250.652632 C354.768633,238.199172 350.535099,222.316001 338.16578,215.09016 Z" id="Path" fill="#69D2E7"></path>
                <path d="M324.062934,276.96121 L341.522018,246.692172 C346.848106,237.383858 343.667989,225.517461 334.409237,220.12895 L300.777685,200.695293 C297.850035,198.998009 294.52912,198.108029 291.149942,198.103166 C284.197382,198.098303 277.769177,201.799257 274.278331,207.819995 L273.491798,209.181713 L273.443247,209.13308 L241.103162,265.235848 L308.312862,304.103162 L324.062934,276.790995 L324.062934,276.96121 Z" id="Path" fill="#4C98A7"></path>
                <path d="M366.376936,126.692343 C357.056322,121.349314 345.169375,124.539545 339.778612,133.832618 L304.103162,195.640313 L337.83073,215.103162 L373.511051,153.295466 C378.857987,143.978041 375.668331,132.088949 366.376936,126.692343 Z" id="Path" fill="#A7DBD8"></path>
                <path d="M311.106599,183.103162 L304.103162,195.385044 L337.764375,215.103162 L345.103162,202.204473 L316.447875,185.412491 C314.761412,184.440402 312.968026,183.670625 311.106599,183.103162 Z" id="Path" fill="#4C98A7"></path>
                <polygon id="Path" fill="#F38630" points="110.103162 78.1031616 110.103162 344.103162 266.103162 344.103162 266.103162 78.1031616"></polygon>
                <path d="M126.283462,290.003457 C124.116226,287.855362 123.126731,284.767783 123.633546,281.73892 L130.019408,244.017596 C130.878579,238.938502 127.519124,234.108958 122.504074,233.237977 C120.505777,232.890563 118.449558,233.218405 116.658814,234.177463 L111.103162,237.132928 L111.103162,338.103162 L148.211632,332.637508 C153.245989,331.898642 156.735769,327.162069 156.006921,322.063402 C155.717313,320.02785 154.771259,318.148879 153.318392,316.715185 L126.283462,290.003457 Z" id="Path" fill="#BA4E00"></path>
                <polygon id="Path" fill="#FA6900" points="266.103162 279.603162 266.103162 273.103162 221.103162 273.103162 221.103162 325.103162 266.103162 325.103162"></polygon>
                <polygon id="Path" fill="#BA4E00" points="266.103162 325.103162 110.103162 325.103162 110.103162 344.103162 266.103162 344.103162"></polygon>
                <polygon id="Path" fill="#BA4E00" points="110.103162 77.1031616 266.103162 77.1031616 266.103162 90.1031616 110.103162 90.1031616"></polygon>
                <path d="M208.103162,246.103162 L169.103162,246.103162 C161.919978,246.103162 156.103162,251.954421 156.103162,259.169174 L156.103162,344.103162 L221.103162,344.103162 L221.103162,259.169174 C221.103162,251.954421 215.286345,246.103162 208.103162,246.103162 Z" id="Path" fill="#FA6900"></path>
                <path d="M208.071288,246.103162 L168.975668,246.103162 C163.849015,246.108067 159.201763,249.129337 157.103162,253.813287 C158.781065,253.048159 160.610614,252.645978 162.459731,252.641073 L201.555352,252.641073 C208.751254,252.641073 214.587225,258.487427 214.587225,265.707086 L214.587225,344.103162 L221.103162,344.103162 L221.103162,259.17408 C221.103162,251.954421 215.272083,246.103162 208.071288,246.103162 Z" id="Path" fill="#BA4E00"></path>
                <path d="M52.9625455,331.103162 C24.356178,331.190991 1.19076253,354.421918 1.1031616,383.103162 L377.103162,383.103162 C377.015562,354.421918 353.84528,331.190991 325.238911,331.103162 L189.103162,331.103162" id="Path" fill="#F38630"></path>
                <path d="M86.8408475,377.920211 L103.751822,343.690856 C105.108997,340.942942 107.73547,339.039412 110.767142,338.600137 L148.54833,333.104307 C150.222829,332.874907 151.79969,332.181828 153.103162,331.103162 L52.4721232,331.103162 C44.7245142,331.112923 37.0794265,332.874907 30.1031616,336.257332 L46.2183827,338.600137 C49.2500553,339.039412 51.8716466,340.942942 53.2337029,343.690856 L70.1397958,377.920211 C72.4245349,382.532608 78.0192171,384.416612 82.6277505,382.132378 C84.45847,381.229422 85.9376924,379.745646 86.8408475,377.920211 Z" id="Path" fill="#BA4E00"></path>
                <path d="M265.751649,16.3521445 L265.751649,26.1015352 L239.865582,26.1015352 L239.865582,16.3521445 C239.865582,7.37860767 232.622923,0.103161601 223.689825,0.103161601 C214.756727,0.103161601 207.514069,7.37860767 207.514069,16.3521445 L207.514069,26.1015352 L168.692254,26.1015352 L168.692254,16.3521445 C168.692254,7.37860767 161.449595,0.103161601 152.51164,0.103161601 C143.578542,0.103161601 136.335883,7.37860767 136.335883,16.3521445 L136.335883,26.1015352 L110.454673,26.1015352 L110.454673,16.3521445 C110.454673,7.37860767 103.212015,0.103161601 94.2789173,0.103161601 C85.3458191,0.103161601 78.1031616,7.37860767 78.1031616,16.3521445 L78.1031616,64.8014418 C78.1031616,72.1500806 84.0294134,78.1031616 91.340079,78.1031616 L284.866244,78.1031616 C292.176909,78.1031616 298.103162,72.1500806 298.103162,64.8014418 L298.103162,16.3521445 C298.103162,7.37860767 290.860503,0.103161601 281.927406,0.103161601 C272.994308,0.103161601 265.751649,7.37860767 265.751649,16.3521445 Z" id="Path" fill="#F38630"></path>
                <polygon id="Path" fill="#FA6900" points="208.103162 20.1031616 240.103162 20.1031616 240.103162 26.1031616 208.103162 26.1031616"></polygon>
                <polygon id="Path" fill="#FA6900" points="136.103162 20.1031616 168.103162 20.1031616 168.103162 26.1031616 136.103162 26.1031616"></polygon>
                <path d="M292.237789,260.026241 L292.237789,279.410856 L221.103162,279.410856 L221.103162,331.103162 L318.103162,331.103162 L318.103162,260.026241 C318.103162,252.885562 312.316464,247.103165 305.170476,247.103165 C298.029341,247.098313 292.237789,252.885562 292.237789,260.026241 Z" id="Path" fill="#F38630"></path>
                <polygon id="Path" fill="#FA6900" points="221.103162 325.103162 318.103162 325.103162 318.103162 331.103162 221.103162 331.103162"></polygon>
                <path d="M82.4644794,233.897204 L116.263435,216.172544 C120.810948,213.785876 126.441669,215.529604 128.832528,220.069145 C129.788872,221.881063 130.115786,223.956003 129.769355,225.972493 L123.314032,263.516237 C122.801705,266.531231 123.801964,269.604675 125.992772,271.742934 L153.292491,298.346972 C156.971489,301.926973 157.049558,307.805969 153.463267,311.483386 C152.033631,312.949482 150.159977,313.904149 148.130186,314.196394 L110.369232,319.675987 C107.334304,320.119226 104.714117,322.018818 103.357669,324.75618 L86.4557515,358.919622 C84.1819953,363.522481 78.5951884,365.412333 73.9842441,363.142563 C72.1447458,362.236603 70.6614367,360.751024 69.753885,358.919622 L52.8568463,324.75618 C51.4955207,322.018818 48.8753322,320.119226 45.8404041,319.675987 L8.07945077,314.196394 C2.99033502,313.46091 -0.532524907,308.746024 0.199370444,303.670701 C0.497009078,301.644469 1.44847291,299.774101 2.91714511,298.346972 L30.2461405,271.742934 C32.4418279,269.604675 33.4420866,266.531231 32.9248795,263.516237 L26.5134714,225.967622 C25.6400752,220.911784 29.0409515,216.109224 34.1056723,215.23736 C36.1257046,214.891537 38.2042898,215.217876 40.0193918,216.172544 L73.813468,233.897204 C76.5263625,235.314592 79.756464,235.314592 82.4644794,233.897204 Z" id="Path" fill="#69D2E7"></path>
                <path d="M148.18177,306.944675 L110.389304,312.476671 C107.357117,312.913926 104.7302,314.829981 103.372795,317.600892 L86.4638417,352.055505 C84.1835983,356.698256 78.5977352,358.604486 73.9786568,356.315044 C72.1427437,355.401234 70.6535048,353.907693 69.7453144,352.055505 L52.8363596,317.600892 C51.4789564,314.829981 48.8520377,312.913926 45.8198518,312.476671 L8.02738641,306.944675 C4.72664912,306.477943 1.93860001,304.237632 0.756974495,301.103162 C-1.1277654,305.888387 1.20130483,311.307386 5.95710149,313.208704 C6.62603758,313.474003 7.31938709,313.660696 8.02738641,313.763868 L45.8198518,319.295866 C48.8520377,319.738032 51.4740728,321.654088 52.8363596,324.420086 L69.7453144,358.874699 C72.0255578,363.517449 77.6114209,365.423679 82.2304994,363.134238 C84.0664124,362.220427 85.5556501,360.726886 86.4638417,358.874699 L103.372795,324.420086 C104.735082,321.654088 107.357117,319.738032 110.389304,319.295866 L148.176886,313.763868 C153.245179,313.017098 156.746108,308.281001 156.003931,303.186258 C155.901393,302.468965 155.715848,301.771325 155.45218,301.103162 C154.270555,304.237632 151.482507,306.477943 148.18177,306.944675 Z" id="Path" fill="#4C98A7"></path>
                <path d="M100.907986,280.591232 L88.9165702,276.701984 L96.3221719,266.528605 C98.502873,263.6859 97.9613564,259.616549 95.1122977,257.440712 C92.2583608,255.264874 88.1799126,255.805183 85.9992128,258.647888 C85.9357923,258.730637 85.8772487,258.818255 85.8138282,258.901005 L78.4033495,269.084119 L70.9879914,258.901005 C68.9487673,255.95608 64.899592,255.216198 61.9480834,257.255742 C58.996576,259.290417 58.2550402,263.325694 60.2942643,266.275488 C60.3576849,266.363105 60.4162272,266.445856 60.4796477,266.528605 L67.8901276,276.701984 L55.8987123,280.591232 C52.4349601,281.535555 50.3908578,285.098672 51.3324128,288.549832 C52.2788473,292.00586 55.8499277,294.045403 59.3136799,293.105947 C59.5137003,293.047536 59.7137195,292.984257 59.9088606,292.911242 L71.9051528,289.021993 L71.9051528,301.619458 C71.9051528,305.202045 74.8127551,308.103162 78.4033495,308.103162 C81.993944,308.103162 84.9015437,305.202045 84.9015437,301.619458 L84.9015437,289.031729 L96.8978373,292.925845 C100.361591,293.8653 103.932671,291.825756 104.874226,288.369729 C105.752361,285.147347 104.03512,281.788673 100.907986,280.605835 L100.907986,280.591232 Z" id="Path" fill="#A7DBD8"></path>
                <path d="M149.103162,136.103162 L162.103162,136.103162 C169.286345,136.103162 175.103162,141.924859 175.103162,149.103162 L175.103162,162.103162 C175.103162,169.286345 169.286345,175.103162 162.103162,175.103162 L149.103162,175.103162 C141.924859,175.103162 136.103162,169.286345 136.103162,162.103162 L136.103162,149.103162 C136.103162,141.924859 141.924859,136.103162 149.103162,136.103162 Z" id="Path" fill="#FA6900"></path>
                <path d="M162.600721,214.103162 C159.015356,214.103162 156.103162,211.269327 156.103162,207.769827 L156.103162,201.436496 C156.103162,197.936996 159.015356,195.103162 162.600721,195.103162 C166.190965,195.103162 169.103162,197.936996 169.103162,201.436496 L169.103162,207.769827 C169.103162,211.269327 166.190965,214.103162 162.600721,214.103162 Z" id="Path" fill="#FA6900"></path>
                <path d="M136.60316,117.103162 C133.01645,117.103162 130.103162,114.269328 130.103162,110.769828 L130.103162,104.436495 C130.103162,100.936995 133.01645,98.1031616 136.60316,98.1031616 C140.194752,98.1031616 143.103162,100.936995 143.103162,104.436495 L143.103162,110.769828 C143.103162,114.269328 140.194752,117.103162 136.60316,117.103162 Z" id="Path" fill="#FA6900"></path>
                <path d="M214.603162,117.103162 C211.01157,117.103162 208.103162,114.269328 208.103162,110.769828 L208.103162,104.436495 C208.103162,100.936995 211.01157,98.1031616 214.603162,98.1031616 C218.194753,98.1031616 221.103162,100.936995 221.103162,104.436495 L221.103162,110.769828 C221.103162,114.269328 218.194753,117.103162 214.603162,117.103162 Z" id="Path" fill="#FA6900"></path>
                <path d="M195.603162,285.103162 C192.01157,285.103162 189.103162,282.264573 189.103162,278.769828 L189.103162,272.436495 C189.103162,268.936995 192.01157,266.103162 195.603162,266.103162 C199.194753,266.103162 202.103162,268.936995 202.103162,272.436495 L202.103162,278.769828 C202.103162,282.264573 199.194753,285.103162 195.603162,285.103162 Z" id="Path" fill="#BA4E00"></path>
                <g id="Group" transform="translate(150.103162, 45.103162)" fill="#FA6900">
                    <path d="M64.6432528,91.2199459 L77.5689921,91.2199459 C84.7062894,91.2199459 90.4947314,97.0218019 90.4947314,104.175639 L90.4947314,117.131332 C90.4947314,124.290034 84.7062894,130.087025 77.5689921,130.087025 L64.6432528,130.087025 C57.5059542,130.087025 51.7175135,124.290034 51.7175135,117.131332 L51.7175135,104.175639 C51.7175135,97.0218019 57.5059542,91.2199459 64.6432528,91.2199459 Z" id="Path"></path>
                    <path d="M32.3289046,65.3085595 C32.3289046,68.8879102 29.4322571,71.7864061 25.8660349,71.7864061 C22.2949598,71.7864061 19.4031653,68.8879102 19.4031653,65.3085595 C19.4031653,61.7292089 22.2949598,58.830713 25.8660349,58.830713 C29.4322571,58.830713 32.3289046,61.7292089 32.3289046,65.3085595 Z" id="Path"></path>
                    <path d="M12.9402956,7.00794032 C12.9402956,10.582428 10.0436494,13.4857869 6.47742597,13.4857869 C2.90635085,13.4857869 0.00970338742,10.582428 0.00970338742,7.00794032 C0.00970338742,3.42858966 2.90635085,0.525230804 6.47742597,0.525230804 C10.0436494,0.525230804 12.9402956,3.42858966 12.9402956,7.00794032 Z" id="Path"></path>
                    <path d="M84.0318617,7.00794032 C84.0318617,10.582428 81.1400672,13.4857869 77.5689921,13.4857869 C74.0027687,13.4857869 71.1061224,10.582428 71.1061224,7.00794032 C71.1061224,3.42858966 74.0027687,0.525230804 77.5689921,0.525230804 C81.1400672,0.525230804 84.0318617,3.42858966 84.0318617,7.00794032 Z" id="Path"></path>
                    <path d="M116.351062,7.00794032 C116.351062,10.582428 113.454415,13.4857869 109.888192,13.4857869 C106.317117,13.4857869 103.420471,10.582428 103.420471,7.00794032 C103.420471,3.42858966 106.317117,0.525230804 109.888192,0.525230804 C113.454415,0.525230804 116.351062,3.42858966 116.351062,7.00794032 Z" id="Path"></path>
                    <path d="M51.7175135,162.481121 C51.7175135,166.060472 48.825719,168.958969 45.2546438,168.958969 C41.6835687,168.958969 38.7917742,166.060472 38.7917742,162.481121 C38.7917742,158.901771 41.6835687,156.003276 45.2546438,156.003276 C48.825719,156.003276 51.7175135,158.901771 51.7175135,162.481121 Z" id="Path"></path>
                    <path d="M96.957601,194.875218 C96.957601,198.449706 94.0658065,201.353065 90.4947314,201.353065 C86.9285079,201.353065 84.0318617,198.449706 84.0318617,194.875218 C84.0318617,191.295868 86.9285079,188.392508 90.4947314,188.392508 C94.0658065,188.392508 96.957601,191.295868 96.957601,194.875218 Z" id="Path"></path>
                    <path d="M142.20254,259.653684 C142.20254,263.233035 139.310746,266.131531 135.739671,266.131531 C132.168595,266.131531 129.276801,263.233035 129.276801,259.653684 C129.276801,256.074333 132.168595,253.175837 135.739671,253.175837 C139.310746,253.175837 142.20254,256.074333 142.20254,259.653684 Z" id="Path"></path>
                    <path d="M64.6432528,311.48132 C64.6432528,315.055807 61.7514583,317.959166 58.1803831,317.959166 C54.609308,317.959166 51.7175135,315.055807 51.7175135,311.48132 C51.7175135,307.901969 54.609308,305.003473 58.1803831,305.003473 C61.7514583,305.003473 64.6432528,307.901969 64.6432528,311.48132 Z" id="Path"></path>
                    <path d="M161.591149,311.48132 C161.591149,315.055807 158.699355,317.959166 155.12828,317.959166 C151.557204,317.959166 148.66541,315.055807 148.66541,311.48132 C148.66541,307.901969 151.557204,305.003473 155.12828,305.003473 C158.699355,305.003473 161.591149,307.901969 161.591149,311.48132 Z" id="Path"></path>
                </g>
                <path d="M163.042653,136.103162 L149.982144,136.103162 C144.854032,136.11787 140.206374,139.137867 138.103162,143.81494 C139.78475,143.045234 141.608516,142.643222 143.451891,142.633416 L156.5124,142.633416 C163.719211,142.65793 169.553297,148.492015 169.572909,155.693924 L169.572909,168.754432 C169.568005,170.602709 169.165993,172.426475 168.391383,174.103162 C173.07336,172.004852 176.088455,167.357193 176.103162,162.224178 L176.103162,149.16367 C176.083552,141.961761 170.249466,136.127674 163.042653,136.103162 Z" id="Path" fill="#BA4E00"></path>
                <path d="M227.042653,136.103162 L213.982145,136.103162 C208.854032,136.11787 204.206374,139.137867 202.103162,143.81494 C203.779848,143.045234 205.603614,142.643222 207.451891,142.633416 L220.512399,142.633416 C227.719211,142.65793 233.553297,148.492015 233.572907,155.693924 L233.572907,168.754432 C233.568005,170.602709 233.165992,172.426475 232.391383,174.103162 C237.073358,172.004852 240.088454,167.357193 240.103162,162.224178 L240.103162,149.16367 C240.083551,141.961761 234.249465,136.127674 227.042653,136.103162 Z" id="Path" fill="#BA4E00"></path>
            </g>
            <path d="M196.977404,289.90959 C194.72174,289.198081 192.301692,289.198081 190.046027,289.90959 L190.046027,270.836657 C190.046027,269.453099 188.924457,268.331346 187.541125,268.331346 L127.423477,268.331346 C126.040145,268.331346 124.918575,269.453099 124.918575,270.836657 L124.918575,330.964121 C124.918575,332.347679 126.040145,333.469432 127.423477,333.469432 L146.493296,333.469432 C144.579238,339.539488 147.947705,346.012272 154.016769,347.926329 C160.085834,349.840387 166.557561,346.471683 168.471306,340.401628 C169.182699,338.145595 169.182699,335.725151 168.471306,333.469119 L187.541125,333.469119 C188.924457,333.469119 190.046027,332.347366 190.046027,330.963808 L190.046027,311.890875 C196.115092,313.805246 202.586819,310.436229 204.500564,304.366174 C206.414623,298.296431 203.046469,291.82396 196.977404,289.90959 Z M195.089053,307.112906 C193.791986,307.537514 192.393413,307.537514 191.096347,307.112906 L187.993755,306.07854 C186.700391,305.647759 185.302743,306.347006 184.872033,307.640581 C184.788421,307.891458 184.745844,308.154369 184.745536,308.418824 L184.745536,328.16806 L164.999522,328.16806 C163.63643,328.168985 162.532196,329.275251 162.533122,330.638565 C162.53343,330.90302 162.576008,331.165932 162.65962,331.416809 L163.693817,334.519907 C164.796509,337.889004 162.959512,341.513914 159.590966,342.616477 C156.222419,343.71904 152.5981,341.882052 151.495717,338.512956 C151.071178,337.215678 151.071178,335.816877 151.495717,334.519599 L152.529915,331.4165 C152.960625,330.122925 152.261492,328.72505 150.968129,328.29427 C150.717292,328.210644 150.454424,328.16806 150.190012,328.167751 L130.443999,328.167751 L130.443999,273.857662 L184.745536,273.857662 L184.745536,293.606897 C184.746461,294.970212 185.852546,296.074626 187.215638,296.0737 C187.48005,296.073392 187.742919,296.030807 187.993755,295.947182 L191.096347,294.912816 C194.464894,293.810253 198.089213,295.64724 199.191596,299.016336 C200.294287,302.385124 198.457291,306.010343 195.089053,307.112906 Z" id="Shape" fill="#FFFFFF" fill-rule="nonzero" transform="translate(164.977897, 308.397135) rotate(43.000000) translate(-164.977897, -308.397135) "></path>
            <path d="M171.866473,420.075355 C170.932585,420.381073 169.925612,420.381073 168.991725,420.075355 L166.757858,419.330611 C165.826636,419.020449 164.82033,419.523907 164.510219,420.455281 C164.450018,420.635912 164.419362,420.825208 164.41914,421.015616 L164.41914,435.235065 L150.202011,435.235065 C149.220584,435.235732 148.425536,436.032243 148.426202,437.01383 C148.426425,437.204237 148.45708,437.393533 148.517281,437.574165 L149.261903,439.808396 C150.055841,442.234145 148.733204,444.844081 146.30785,445.637926 C143.882497,446.431771 141.272987,445.10914 140.479271,442.683391 C140.173603,441.749351 140.173603,440.742214 140.479271,439.808174 L141.223893,437.573943 C141.534005,436.642569 141.030629,435.636098 140.099407,435.325937 C139.918805,435.265726 139.72954,435.235065 139.539164,435.234843 L125.322034,435.234843 L125.322034,396.131579 L164.41914,396.131579 L164.41914,410.351029 C164.419807,411.332615 165.216188,412.127793 166.197614,412.127127 C166.387991,412.126904 166.577256,412.096244 166.757858,412.036033 L168.991725,411.29129 C171.417078,410.497444 174.026588,411.820075 174.820304,414.245825 C175.614241,416.671352 174.291604,419.281509 171.866473,420.075355 Z" id="Shape-Copy" fill="#FFFFFF" fill-rule="nonzero" transform="translate(150.186441, 421.000000) rotate(-55.000000) translate(-150.186441, -421.000000) "></path>
            <path d="M223.886852,355.886505 C223.267124,356.089347 222.598898,356.089347 221.979171,355.886505 L220.496779,355.392374 C219.878821,355.186584 219.211037,355.520624 219.005247,356.138583 C218.965298,356.258431 218.944955,356.384027 218.944808,356.510361 L218.944808,365.944853 L209.510332,365.944853 C208.859059,365.945295 208.331465,366.473774 208.331907,367.125049 C208.332055,367.251383 208.352398,367.376979 208.392347,367.496827 L208.886478,368.979221 C209.413334,370.588687 208.535633,372.320358 206.92617,372.847068 C205.316708,373.373778 203.585039,372.496223 203.05833,370.886758 C202.855489,370.26703 202.855489,369.598802 203.05833,368.979074 L203.552461,367.496679 C203.75825,366.87872 203.424211,366.210935 202.806253,366.005145 C202.686406,365.965196 202.560809,365.944853 202.434476,365.944705 L193,365.944705 L193,340 L218.944808,340 L218.944808,349.434492 C218.94525,350.085767 219.473728,350.613361 220.125002,350.612919 C220.251335,350.612772 220.376932,350.592428 220.496779,350.552479 L221.979171,350.058348 C223.588634,349.531638 225.320302,350.409193 225.847011,352.018658 C226.373868,353.627976 225.496167,355.359795 223.886852,355.886505 Z" id="Shape-Copy-3" fill="#FFFFFF" fill-rule="nonzero" transform="translate(209.500000, 356.500000) rotate(-163.000000) translate(-209.500000, -356.500000) "></path>
            <path d="M723.886852,735.886505 C723.267124,736.089347 722.598898,736.089347 721.979171,735.886505 L720.496779,735.392374 C719.878821,735.186584 719.211037,735.520624 719.005247,736.138583 C718.965298,736.258431 718.944955,736.384027 718.944808,736.510361 L718.944808,745.944853 L709.510332,745.944853 C708.859059,745.945295 708.331465,746.473774 708.331907,747.125049 C708.332055,747.251383 708.352398,747.376979 708.392347,747.496827 L708.886478,748.979221 C709.413334,750.588687 708.535633,752.320358 706.92617,752.847068 C705.316708,753.373778 703.585039,752.496223 703.05833,750.886758 C702.855489,750.26703 702.855489,749.598802 703.05833,748.979074 L703.552461,747.496679 C703.75825,746.87872 703.424211,746.210935 702.806253,746.005145 C702.686406,745.965196 702.560809,745.944853 702.434476,745.944705 L693,745.944705 L693,720 L718.944808,720 L718.944808,729.434492 C718.94525,730.085767 719.473728,730.613361 720.125002,730.612919 C720.251335,730.612772 720.376932,730.592428 720.496779,730.552479 L721.979171,730.058348 C723.588634,729.531638 725.320302,730.409193 725.847011,732.018658 C726.373868,733.627976 725.496167,735.359795 723.886852,735.886505 Z" id="Shape-Copy-4" fill="#FFFFFF" fill-rule="nonzero" transform="translate(709.500000, 736.500000) rotate(-163.000000) translate(-709.500000, -736.500000) "></path>
            <path d="M833.886852,725.886505 C833.267124,726.089347 832.598898,726.089347 831.979171,725.886505 L830.496779,725.392374 C829.878821,725.186584 829.211037,725.520624 829.005247,726.138583 C828.965298,726.258431 828.944955,726.384027 828.944808,726.510361 L828.944808,735.944853 L819.510332,735.944853 C818.859059,735.945295 818.331465,736.473774 818.331907,737.125049 C818.332055,737.251383 818.352398,737.376979 818.392347,737.496827 L818.886478,738.979221 C819.413334,740.588687 818.535633,742.320358 816.92617,742.847068 C815.316708,743.373778 813.585039,742.496223 813.05833,740.886758 C812.855489,740.26703 812.855489,739.598802 813.05833,738.979074 L813.552461,737.496679 C813.75825,736.87872 813.424211,736.210935 812.806253,736.005145 C812.686406,735.965196 812.560809,735.944853 812.434476,735.944705 L803,735.944705 L803,710 L828.944808,710 L828.944808,719.434492 C828.94525,720.085767 829.473728,720.613361 830.125002,720.612919 C830.251335,720.612772 830.376932,720.592428 830.496779,720.552479 L831.979171,720.058348 C833.588634,719.531638 835.320302,720.409193 835.847011,722.018658 C836.373868,723.627976 835.496167,725.359795 833.886852,725.886505 Z" id="Shape-Copy-5" fill="#FFFFFF" fill-rule="nonzero" transform="translate(819.500000, 726.500000) rotate(-330.000000) translate(-819.500000, -726.500000) "></path>
            <path d="M643.886852,955.886505 C643.267124,956.089347 642.598898,956.089347 641.979171,955.886505 L640.496779,955.392374 C639.878821,955.186584 639.211037,955.520624 639.005247,956.138583 C638.965298,956.258431 638.944955,956.384027 638.944808,956.510361 L638.944808,965.944853 L629.510332,965.944853 C628.859059,965.945295 628.331465,966.473774 628.331907,967.125049 C628.332055,967.251383 628.352398,967.376979 628.392347,967.496827 L628.886478,968.979221 C629.413334,970.588687 628.535633,972.320358 626.92617,972.847068 C625.316708,973.373778 623.585039,972.496223 623.05833,970.886758 C622.855489,970.26703 622.855489,969.598802 623.05833,968.979074 L623.552461,967.496679 C623.75825,966.87872 623.424211,966.210935 622.806253,966.005145 C622.686406,965.965196 622.560809,965.944853 622.434476,965.944705 L613,965.944705 L613,940 L638.944808,940 L638.944808,949.434492 C638.94525,950.085767 639.473728,950.613361 640.125002,950.612919 C640.251335,950.612772 640.376932,950.592428 640.496779,950.552479 L641.979171,950.058348 C643.588634,949.531638 645.320302,950.409193 645.847011,952.018658 C646.373868,953.627976 645.496167,955.359795 643.886852,955.886505 Z" id="Shape-Copy-6" fill="#FFFFFF" fill-rule="nonzero" transform="translate(629.500000, 956.500000) rotate(-330.000000) translate(-629.500000, -956.500000) "></path>
            <path d="M227.12071,199.022723 C226.186822,199.328441 225.17985,199.328441 224.245962,199.022723 L222.012095,198.277979 C221.080873,197.967818 220.074567,198.471275 219.764456,199.402649 C219.704255,199.58328 219.6736,199.772577 219.673378,199.962984 L219.673378,214.182434 L205.456248,214.182434 C204.474822,214.1831 203.679773,214.979612 203.68044,215.961198 C203.680662,216.151605 203.711317,216.340902 203.771518,216.521533 L204.51614,218.755764 C205.310078,221.181513 203.987441,223.791449 201.562087,224.585294 C199.136734,225.379139 196.527224,224.056508 195.733508,221.630759 C195.42784,220.696719 195.42784,219.689582 195.733508,218.755542 L196.478131,216.521311 C196.788242,215.589937 196.284867,214.583467 195.353645,214.273305 C195.173043,214.213094 194.983777,214.182434 194.793401,214.182212 L180.576271,214.182212 L180.576271,175.078947 L219.673378,175.078947 L219.673378,189.298397 C219.674044,190.279983 220.470425,191.075162 221.451852,191.074495 C221.642228,191.074273 221.831493,191.043612 222.012095,190.983402 L224.245962,190.238658 C226.671315,189.444813 229.280825,190.767444 230.074541,193.193193 C230.868479,195.61872 229.545841,198.228878 227.12071,199.022723 Z" id="Shape-Copy-2" fill="#FFFFFF" fill-rule="nonzero" transform="translate(205.440678, 199.947368) rotate(-199.000000) translate(-205.440678, -199.947368) "></path>
            <g id="Group" transform="translate(717.510264, 1005.381012) rotate(-25.000000) translate(-717.510264, -1005.381012) translate(556.010264, 847.881012)" fill-rule="nonzero">
                <path d="M316.050873,7.48444802 L168.690873,7.48444802 C165.300058,7.48444802 162.550873,10.2336399 162.550873,13.6244634 L162.550873,68.8846015 C162.553176,72.275425 165.304663,75.0223144 168.695478,75.0200119 C169.353226,75.0192444 170.007136,74.9133291 170.631113,74.7053361 L178.349093,72.1326696 C186.728658,69.3896178 195.744481,73.9593242 198.486758,82.3389102 C201.229036,90.7184961 196.660108,99.7343411 188.280543,102.476626 C185.053973,103.532708 181.574896,103.532708 178.348326,102.476626 L170.630346,99.9039591 C167.412986,98.8325264 163.936211,100.571686 162.864781,103.789054 C162.656788,104.413033 162.550873,105.066944 162.550106,105.724694 L162.550106,154.844816 L113.430106,154.844816 C110.039291,154.847119 107.292408,157.598613 107.294711,160.989437 C107.295478,161.647186 107.401393,162.301098 107.609386,162.925077 L110.182046,170.643076 C112.925091,179.022662 108.355396,188.038507 99.9758307,190.780791 C91.5962657,193.523843 82.5804432,188.954137 79.8381657,180.574551 C78.7820857,177.347973 78.7820857,173.868886 79.8381657,170.642308 L82.4108257,162.924309 C83.4822557,159.706941 81.7431007,156.230157 78.5257407,155.158725 C77.9017632,154.950732 77.2478532,154.844816 76.5901057,154.844049 L21.3308732,154.844049 C17.9400582,154.844049 15.1908732,157.593241 15.1908732,160.984064 L15.1908732,308.344433 C15.1908732,311.735256 17.9400582,314.484448 21.3308732,314.484448 L316.050873,314.484448 C319.441688,314.484448 322.190873,311.735256 322.190873,308.344433 L322.190873,13.6244634 C322.190873,10.2336399 319.441688,7.48444802 316.050873,7.48444802 Z" id="Path-Copy" fill="#FFFFFF"></path>
                <path d="M301.549949,0.722555834 L154.189949,0.722555834 C150.799134,0.722555834 148.049949,3.47174771 148.049949,6.86257118 L148.049949,62.1227093 C148.052251,65.5135328 150.803739,68.2604222 154.194554,68.2581197 C154.852301,68.2573522 155.506211,68.1514369 156.130189,67.9434439 L163.848169,65.3707775 C172.227734,62.6277256 181.243556,67.197432 183.985834,75.577018 C186.728111,83.9566039 182.159184,92.972449 173.779619,95.7147333 C170.553049,96.770816 167.073971,96.770816 163.847401,95.7147333 L156.129421,93.1420669 C152.912061,92.0706342 149.435286,93.8097936 148.363856,97.0271616 C148.155864,97.6511407 148.049949,98.3050523 148.049181,98.9628014 L148.049181,148.082924 L98.9291811,148.082924 C95.5383661,148.085227 92.7914836,150.836721 92.7937861,154.227545 C92.7945536,154.885294 92.9004686,155.539205 93.1084611,156.163184 L95.6811211,163.881184 C98.4241661,172.26077 93.8544711,181.276615 85.4749061,184.018899 C77.0953411,186.761951 68.0795186,182.192245 65.3372411,173.812659 C64.2811611,170.58608 64.2811611,167.106994 65.3372411,163.880416 L67.9099011,156.162417 C68.9813311,152.945049 67.2421761,149.468265 64.0248161,148.396833 C63.4008386,148.188839 62.7469286,148.082924 62.0891811,148.082157 L6.82994856,148.082157 C3.43913356,148.082157 0.689948564,150.831349 0.689948564,154.222172 L0.689948564,301.58254 C0.689948564,304.973364 3.43913356,307.722556 6.82994856,307.722556 L301.549949,307.722556 C304.940764,307.722556 307.689949,304.973364 307.689949,301.58254 L307.689949,6.86257118 C307.689949,3.47174771 304.940764,0.722555834 301.549949,0.722555834 Z M149.014098,243.580069 C148.806227,244.205004 148.700374,244.859918 148.699607,245.518675 L148.699607,294.714081 L13.6984231,294.714081 L13.6984231,159.425946 L54.2785517,159.426714 C49.5895617,174.326004 57.841509,190.213814 72.7092814,194.911976 C87.5770538,199.610906 103.431255,191.341465 108.119478,176.442175 C109.862221,170.904618 109.862221,164.963504 108.119478,159.425946 L148.699607,159.425946 L148.699607,208.621352 C148.701908,212.017372 151.45179,214.768472 154.840627,214.766166 C155.49799,214.765397 156.151519,214.659319 156.775132,214.451007 L164.488609,211.874398 C172.863285,209.127911 181.873847,213.703852 184.614524,222.096281 C187.355201,230.48871 182.78894,239.518373 174.414264,242.26486 C171.189577,243.322561 167.712529,243.322561 164.487842,242.26486 L156.774365,239.688251 C153.559649,238.615945 150.084903,240.35777 149.014098,243.580069 Z M159.393338,294.714081 L159.394107,254.133953 C174.293397,258.822943 190.181207,250.570995 194.879368,235.703223 C199.578298,220.835451 191.308858,204.981249 176.409568,200.293026 C170.87201,198.550284 164.930896,198.550284 159.393338,200.293026 L159.393338,159.712898 L208.588745,159.712898 C211.984765,159.710596 214.735864,156.960714 214.733558,153.571878 C214.73279,152.914514 214.626712,152.260986 214.4184,151.637372 L211.841791,143.923896 C209.095303,135.54922 213.671245,126.538658 222.063674,123.79798 C230.456103,121.057303 239.485766,125.623565 242.232253,133.99824 C243.289954,137.222928 243.289954,140.699975 242.232253,143.924663 L239.655644,151.638139 C238.582569,154.853622 240.324394,158.328368 243.546693,159.399173 C244.171628,159.607044 244.826542,159.712898 245.485299,159.713665 L294.680705,159.713665 L294.681474,294.714081 L159.393338,294.714081 Z M256.616785,146.416702 C261.315742,131.517412 253.046255,115.629602 238.14688,110.931441 C223.247505,106.232511 207.359605,114.501951 202.661417,129.401241 C200.91497,134.938799 200.91497,140.879913 202.661417,146.417471 L161.995033,146.417471 L161.995033,105.751318 C170.535866,108.519329 179.886121,107.025787 187.140178,101.735743 C199.8588,92.6638031 202.815153,74.9988089 193.743162,62.280259 C186.57904,52.2367094 173.732048,47.9943743 161.995033,51.7962568 L161.995033,11.1293355 L297.283169,11.1293355 L297.283169,146.417471 L256.616785,146.416702 Z" id="Shape" fill="#5F2135"></path>
            </g>
            <g id="tablet" transform="translate(0.500000, 0.500000)">
                <path d="M167.636919,1033.77698 L167.637688,993.19685 C182.536978,997.88584 198.424788,989.633892 203.122949,974.76612 C207.821879,959.898347 199.552439,944.044146 184.653149,939.355923 C179.115591,937.61318 173.174477,937.61318 167.636919,939.355923 L167.636919,898.775795 L216.832325,898.775795 C220.228346,898.773493 222.979445,896.023611 222.977139,892.634775 C222.97637,891.977411 222.870293,891.323883 222.661981,890.700269 L220.085372,882.986792 C217.338884,874.612117 221.914826,865.601555 230.307255,862.860877 C238.699683,860.1202 247.729346,864.686462 250.475834,873.061137 C251.533535,876.285825 251.533535,879.762872 250.475834,882.987559 L247.899224,890.701036 C246.826149,893.916519 248.567974,897.391265 251.790273,898.46207 C252.415209,898.669941 253.070123,898.775795 253.72888,898.776562 L302.924286,898.776562 L302.925055,1033.77698 L167.636919,1033.77698 Z" id="Path-Copy-2" fill="url(#linearGradient-1)" fill-rule="nonzero" transform="translate(235.280987, 947.921046) rotate(120.000000) translate(-235.280987, -947.921046) "></path>
                <path d="M160.636919,1023.77698 L160.637688,983.19685 C175.536978,987.88584 191.424788,979.633892 196.122949,964.76612 C200.821879,949.898347 192.552439,934.044146 177.653149,929.355923 C172.115591,927.61318 166.174477,927.61318 160.636919,929.355923 L160.636919,888.775795 L209.832325,888.775795 C213.228346,888.773493 215.979445,886.023611 215.977139,882.634775 C215.97637,881.977411 215.870293,881.323883 215.661981,880.700269 L213.085372,872.986792 C210.338884,864.612117 214.914826,855.601555 223.307255,852.860877 C231.699683,850.1202 240.729346,854.686462 243.475834,863.061137 C244.533535,866.285825 244.533535,869.762872 243.475834,872.987559 L240.899224,880.701036 C239.826149,883.916519 241.567974,887.391265 244.790273,888.46207 C245.415209,888.669941 246.070123,888.775795 246.72888,888.776562 L295.924286,888.776562 L295.925055,1023.77698 L160.636919,1023.77698 Z" id="Path-Copy-3" fill="#FA6900" fill-rule="nonzero" transform="translate(228.280987, 937.921046) rotate(120.000000) translate(-228.280987, -937.921046) "></path>
                <path d="M905.401458,0 L72.5515763,0 C32.5475085,0 0,36.2186149 0,80.7348311 L0,1284.20061 C0,1328.71682 32.5447458,1364.93544 72.5515763,1364.93544 L905.401458,1364.93544 C945.405525,1364.93544 977.953034,1328.71682 977.953034,1284.20061 L977.953034,80.7348311 C977.953034,36.2186149 945.405525,0 905.401458,0 Z M881.260881,1186.90747 L96.6921525,1186.90747 L96.6921525,147.28473 L881.260881,147.28473 L881.260881,1186.90747 Z" id="Combined-Shape-Copy" fill="#5F2135" fill-rule="nonzero"></path>
                <rect id="Rectangle" fill="#E6074F" x="406.118644" y="66.4278094" width="165.762712" height="21.5202703" rx="5"></rect>
                <path d="M488.977898,1228.12493 C478.402237,1228.12493 468.093638,1232.39862 460.615898,1239.87756 C453.191571,1247.30309 448.918576,1257.66677 448.918576,1268.19072 C448.918576,1278.71467 453.191571,1289.07835 460.615898,1296.50388 C468.093638,1303.98283 478.402237,1308.25651 488.977898,1308.25651 C499.500147,1308.25651 509.862158,1303.98283 517.286486,1296.50388 C524.764226,1289.07835 529.03722,1278.71467 529.03722,1268.19072 C529.03722,1257.66677 524.764226,1247.30309 517.286486,1239.87756 C509.808746,1232.39862 499.500147,1228.12493 488.977898,1228.12493 Z" id="Path" fill="#E6074F"></path>
            </g>
        </g>
    </g>
</svg>