<?xml version="1.0" encoding="UTF-8"?>
<svg width="613px" height="404px" viewBox="0 0 613 404" version="1.1" xmlns="http://www.w3.org/2000/svg" xmlns:xlink="http://www.w3.org/1999/xlink">
    <!-- Generator: Sketch 52.6 (67491) - http://www.bohemiancoding.com/sketch -->
    <title>Artboard</title>
    <desc>Created with Sketch.</desc>
    <defs>
        <path d="M261,402 L372.568,402 C376.986,402 380.568,398.418 380.568,394 C380.568,389.582 376.986,386 372.568,386 L261,386 L261,324.664 L446.216,324.664 C464.802,324.708 479.916,309.698 480,291.112 L480,255 L399,167 C442.868,56.9706667 458.606667,1.97066667 446.216,2 L261,2 L261,0 L571,0 L571,404 L261,404 L261,402 Z" id="path-1"></path>
    </defs>
    <g id="Artboard" stroke="none" stroke-width="1" fill="none" fill-rule="evenodd">
        <g id="Group-2" transform="translate(17.000000, 0.000000)">
            <g id="snake" transform="translate(190.000000, 7.000000)">
                <polygon id="Path" fill="#FA235E" points="363.642492 42 347 25.3591283 372.357508 0 389 16.6408717"></polygon>
                <polygon id="Path" fill="#C91341" points="355 33.5945649 363.406441 42 389 16.4054351 380.593559 8"></polygon>
                <path d="M298.093147,156.506279 C295.123741,153.528145 293.485866,149.568476 293.485866,145.355804 C293.485866,141.146178 295.120708,137.18651 298.093147,134.208375 L312.691461,119.570709 C328.633438,120.363252 345.488379,113.605296 357.948358,101.110544 C379.977769,79.0260171 367.784704,35.4300328 366.319716,30.5284567 L364.518054,24.4990307 L358.503415,22.6914215 C353.61709,21.2252164 310.131524,8.99870998 288.105146,31.0832374 C276.734051,42.4867176 270.05213,57.5999103 269.642661,72.4113275 L251.920253,91.4110313 C238.08628,106.240738 230.658217,125.584894 230.997924,145.886198 C231.334598,166.184454 239.408712,185.269509 253.724948,199.626737 L293.937799,239.939763 C298.444986,244.460309 298.444986,251.815721 293.937799,256.336267 L293.012703,257.265981 C288.505515,261.783478 281.168444,261.786526 276.658223,257.265981 L139.122268,119.372572 C125.361089,105.576221 107.074525,97.8031993 87.6262817,97.4831331 C67.9960534,97.1600197 49.5578342,104.457515 35.6086034,118.034394 C21.489519,131.775877 13.6064906,150.251283 13.4032726,170.055723 C13.2030876,189.86626 20.7100123,208.500175 34.5227537,222.497711 L128.764228,318.511297 C130.969293,320.745659 132.146136,323.723793 132.082441,326.903112 C132.018746,330.073286 130.717545,333.002648 128.421488,335.15166 C123.923399,339.358236 116.562064,339.068653 112.009379,334.505432 L79.142699,301.550868 C59.5943645,281.953707 27.7832033,281.953707 8.23486887,301.550868 L0,309.80856 L68.1143445,378.098368 C81.8755226,391.894719 100.162088,399.67079 119.61033,399.990855 C120.025865,399.996952 120.438367,400 120.853901,400 C139.986701,400 157.976022,392.723842 171.628009,379.436547 C185.747093,365.695063 193.633155,347.222706 193.833339,327.418265 C194.033524,307.60468 186.5266,288.973813 172.713859,274.973229 L78.469351,178.959644 C76.2673194,176.725281 75.0904763,173.747147 75.1541712,170.567828 C75.2178669,167.397655 76.5160341,164.468292 78.8151241,162.322329 C83.3132128,158.112704 90.6745486,158.402288 95.2272327,162.965508 L232.969439,301.066197 C246.824644,314.957044 265.241632,322.605088 284.835463,322.605088 C304.429294,322.605088 322.849315,314.953996 336.701487,301.066197 L337.626582,300.139531 C366.22569,271.4647 366.22569,224.811328 337.626582,196.139546 L298.093147,156.506279 Z" id="Path" fill="#F0CB21"></path>
                <g id="Group" transform="translate(40.000000, 24.000000)" fill="#C8AA20">
                    <path d="M89.0149936,294.539225 C91.2163715,296.772822 92.3912471,299.752982 92.3276586,302.928164 C92.2640702,306.097251 90.9650448,309.025609 88.6728264,311.173885 C84.1822579,315.379019 76.83323,315.089536 72.2881566,310.527878 L43.9791057,282.109699 L0.363363583,325.894904 L28.4665085,354.108921 C42.201652,367.900545 60.4606724,375.670902 79.8733712,375.990858 C80.2882119,375.996953 80.700024,376 81.1148639,376 C100.215676,376 118.174922,368.729383 131.804084,355.446642 C145.899563,341.70682 153.772441,323.240794 153.97229,303.44314 C154.17214,283.636346 146.677766,265.011864 132.891147,251.016079 L104.152115,221.698976 L60.536373,265.487228 L89.0149936,294.539225 Z" id="Path"></path>
                    <path d="M272.634724,95.6668181 C288.550049,96.4590899 305.376811,89.7034496 317.815958,77.21298 C339.808539,55.1360222 327.635859,11.5549793 326.173321,6.65812999 L324.374671,0.627723419 L324.362559,0.624675635 L192.101242,133.40638 C194.711404,149.358468 202.193666,164.076439 213.766796,175.695409 L253.912416,215.997666 C258.412068,220.516663 258.412068,227.866507 253.912416,232.388551 L252.988867,233.314899 C248.489215,237.833895 241.16441,237.833895 236.66173,233.314899 L164.621872,160.992674 L121.006129,204.780926 L193.045987,277.100104 C206.878028,290.98619 225.264225,298.631613 244.825298,298.631613 C264.386371,298.631613 282.772568,290.98619 296.601581,277.103151 L297.528158,276.173755 C326.076424,247.511799 326.076424,200.874416 297.528158,172.209414 L258.060817,132.58973 C255.096375,129.612617 253.461239,125.654305 253.461239,121.446123 C253.461239,117.234893 255.093347,113.279629 258.060817,110.299468 L272.634724,95.6668181 Z" id="Path"></path>
                </g>
            </g>
            <g id="computer" transform="translate(0.000000, 2.000000)" fill-rule="nonzero">
                <path d="M446.216,2.41390837e-15 L33.784,1.56707872e-15 C15.198,-0.044 0.084,14.966 0,33.552 L0,289.112 C0.084,307.698 15.198,322.708 33.784,322.664 L219.904,322.664 L219.904,384 L107.432,384 C103.014,384 99.432,387.582 99.432,392 C99.432,396.418 103.014,400 107.432,400 L372.568,400 C376.986,400 380.568,396.418 380.568,392 C380.568,387.582 376.986,384 372.568,384 L260.096,384 L260.096,322.664 L446.216,322.664 C464.802,322.708 479.916,307.698 480,289.112 L480,33.552 C479.916,14.966 464.802,-0.044 446.216,2.41390837e-15 Z" id="Shape" fill="#5F2135"></path>
                <path d="M464,289.112 C463.925,298.865 455.969,306.717 446.216,306.664 L33.784,306.664 C24.031,306.717 16.075,298.865 16,289.112 L16,285.432 L464,285.432 L464,289.112 Z" id="Path" fill="#E6074F"></path>
                <path d="M464,271.432267 L16,271.432267 L16,33.5522667 C16.075,23.7992667 24.031,15.9472667 33.784,16.0002667 L446.216,16.0002667 C455.969,15.9472667 463.925,23.7992667 464,33.5522667 L464,271.432267 Z" id="Path" fill="#E6074F"></path>
            </g>
            <g id="Code" transform="translate(26.000000, 53.000000)">
                <rect id="Rectangle" fill="#5F2135" x="0" y="0" width="51" height="10"></rect>
                <rect id="Rectangle-Copy" fill="#F07321" x="60" y="0" width="51" height="10"></rect>
                <rect id="Rectangle-Copy-2" fill="#5F2135" x="0" y="14" width="92" height="10"></rect>
                <rect id="Rectangle-Copy-3" fill="#5F2135" x="99" y="14" width="75" height="10"></rect>
                <rect id="Rectangle-Copy-4" fill="#5F2135" x="181" y="14" width="75" height="10"></rect>
                <rect id="Rectangle-Copy-5" fill="#F07321" x="0" y="29" width="75" height="10"></rect>
                <rect id="Rectangle-Copy-6" fill="#5F2135" x="80" y="29" width="75" height="10"></rect>
                <rect id="Rectangle-Copy-7" fill="#5F2135" x="160" y="29" width="75" height="10"></rect>
                <rect id="Rectangle-Copy-8" fill="#5F2135" x="117" y="0" width="75" height="10"></rect>
                <rect id="Rectangle-Copy-17" fill="#5F2135" x="0" y="46" width="51" height="10"></rect>
                <rect id="Rectangle-Copy-16" fill="#5F2135" x="60" y="46" width="51" height="10"></rect>
                <rect id="Rectangle-Copy-15" fill="#5F2135" x="0" y="60" width="92" height="10"></rect>
                <rect id="Rectangle-Copy-14" fill="#5F2135" x="99" y="60" width="75" height="10"></rect>
                <rect id="Rectangle-Copy-13" fill="#5F2135" x="181" y="60" width="75" height="10"></rect>
                <rect id="Rectangle-Copy-12" fill="#5F2135" x="0" y="75" width="75" height="10"></rect>
                <rect id="Rectangle-Copy-11" fill="#FFFFFF" x="80" y="75" width="75" height="10"></rect>
                <rect id="Rectangle-Copy-10" fill="#5F2135" x="160" y="75" width="75" height="10"></rect>
                <rect id="Rectangle-Copy-33" fill="#5F2135" x="0" y="100" width="51" height="10"></rect>
                <rect id="Rectangle-Copy-32" fill="#5F2135" x="60" y="100" width="51" height="10"></rect>
                <rect id="Rectangle-Copy-31" fill="#5F2135" x="0" y="114" width="92" height="10"></rect>
                <rect id="Rectangle-Copy-30" fill="#5F2135" x="99" y="114" width="75" height="10"></rect>
                <rect id="Rectangle-Copy-29" fill="#5F2135" x="181" y="114" width="75" height="10"></rect>
                <rect id="Rectangle-Copy-28" fill="#5F2135" x="0" y="129" width="75" height="10"></rect>
                <rect id="Rectangle-Copy-27" fill="#F07321" x="80" y="129" width="75" height="10"></rect>
                <rect id="Rectangle-Copy-26" fill="#5F2135" x="160" y="129" width="75" height="10"></rect>
                <rect id="Rectangle-Copy-9" fill="#F07321" x="117" y="100" width="75" height="10"></rect>
                <rect id="Rectangle-Copy-25" fill="#5F2135" x="0" y="146" width="51" height="10"></rect>
                <rect id="Rectangle-Copy-24" fill="#5F2135" x="60" y="146" width="51" height="10"></rect>
                <rect id="Rectangle-Copy-23" fill="#5F2135" x="0" y="160" width="92" height="10"></rect>
                <rect id="Rectangle-Copy-22" fill="#5F2135" x="99" y="160" width="75" height="10"></rect>
                <rect id="Rectangle-Copy-21" fill="#5F2135" x="181" y="160" width="75" height="10"></rect>
                <rect id="Rectangle-Copy-20" fill="#5F2135" x="0" y="175" width="75" height="10"></rect>
                <rect id="Rectangle-Copy-19" fill="#5F2135" x="80" y="175" width="75" height="10"></rect>
                <rect id="Rectangle-Copy-18" fill="#FFFFFF" x="160" y="175" width="75" height="10"></rect>
            </g>
            <mask id="mask-2" fill="white">
                <use xlink:href="#path-1"></use>
            </mask>
            <g id="Combined-Shape"></g>
            <g id="snake-copy" mask="url(#mask-2)">
                <g transform="translate(190.000000, 7.000000)">
                    <polygon id="Path" fill="#FA235E" points="363.642492 42 347 25.3591283 372.357508 0 389 16.6408717"></polygon>
                    <polygon id="Path" fill="#C91341" points="355 33.5945649 363.406441 42 389 16.4054351 380.593559 8"></polygon>
                    <path d="M298.093147,156.506279 C295.123741,153.528145 293.485866,149.568476 293.485866,145.355804 C293.485866,141.146178 295.120708,137.18651 298.093147,134.208375 L312.691461,119.570709 C328.633438,120.363252 345.488379,113.605296 357.948358,101.110544 C379.977769,79.0260171 367.784704,35.4300328 366.319716,30.5284567 L364.518054,24.4990307 L358.503415,22.6914215 C353.61709,21.2252164 310.131524,8.99870998 288.105146,31.0832374 C276.734051,42.4867176 270.05213,57.5999103 269.642661,72.4113275 L251.920253,91.4110313 C238.08628,106.240738 230.658217,125.584894 230.997924,145.886198 C231.334598,166.184454 239.408712,185.269509 253.724948,199.626737 L293.937799,239.939763 C298.444986,244.460309 298.444986,251.815721 293.937799,256.336267 L293.012703,257.265981 C288.505515,261.783478 281.168444,261.786526 276.658223,257.265981 L139.122268,119.372572 C125.361089,105.576221 107.074525,97.8031993 87.6262817,97.4831331 C67.9960534,97.1600197 49.5578342,104.457515 35.6086034,118.034394 C21.489519,131.775877 13.6064906,150.251283 13.4032726,170.055723 C13.2030876,189.86626 20.7100123,208.500175 34.5227537,222.497711 L128.764228,318.511297 C130.969293,320.745659 132.146136,323.723793 132.082441,326.903112 C132.018746,330.073286 130.717545,333.002648 128.421488,335.15166 C123.923399,339.358236 116.562064,339.068653 112.009379,334.505432 L79.142699,301.550868 C59.5943645,281.953707 27.7832033,281.953707 8.23486887,301.550868 L0,309.80856 L68.1143445,378.098368 C81.8755226,391.894719 100.162088,399.67079 119.61033,399.990855 C120.025865,399.996952 120.438367,400 120.853901,400 C139.986701,400 157.976022,392.723842 171.628009,379.436547 C185.747093,365.695063 193.633155,347.222706 193.833339,327.418265 C194.033524,307.60468 186.5266,288.973813 172.713859,274.973229 L78.469351,178.959644 C76.2673194,176.725281 75.0904763,173.747147 75.1541712,170.567828 C75.2178669,167.397655 76.5160341,164.468292 78.8151241,162.322329 C83.3132128,158.112704 90.6745486,158.402288 95.2272327,162.965508 L232.969439,301.066197 C246.824644,314.957044 265.241632,322.605088 284.835463,322.605088 C304.429294,322.605088 322.849315,314.953996 336.701487,301.066197 L337.626582,300.139531 C366.22569,271.4647 366.22569,224.811328 337.626582,196.139546 L298.093147,156.506279 Z" id="Path" fill="#F0CB21"></path>
                    <g id="Group" stroke-width="1" fill="none" transform="translate(40.000000, 24.000000)">
                        <path d="M89.0149936,294.539225 C91.2163715,296.772822 92.3912471,299.752982 92.3276586,302.928164 C92.2640702,306.097251 90.9650448,309.025609 88.6728264,311.173885 C84.1822579,315.379019 76.83323,315.089536 72.2881566,310.527878 L43.9791057,282.109699 L0.363363583,325.894904 L28.4665085,354.108921 C42.201652,367.900545 60.4606724,375.670902 79.8733712,375.990858 C80.2882119,375.996953 80.700024,376 81.1148639,376 C100.215676,376 118.174922,368.729383 131.804084,355.446642 C145.899563,341.70682 153.772441,323.240794 153.97229,303.44314 C154.17214,283.636346 146.677766,265.011864 132.891147,251.016079 L104.152115,221.698976 L60.536373,265.487228 L89.0149936,294.539225 Z" id="Path" fill="#C8AA20"></path>
                        <path d="M272.634724,95.6668181 C288.550049,96.4590899 305.376811,89.7034496 317.815958,77.21298 C339.808539,55.1360222 327.635859,11.5549793 326.173321,6.65812999 L324.374671,0.627723419 L324.362559,0.624675635 L192.101242,133.40638 C194.711404,149.358468 202.193666,164.076439 213.766796,175.695409 L253.912416,215.997666 C258.412068,220.516663 258.412068,227.866507 253.912416,232.388551 L252.988867,233.314899 C248.489215,237.833895 241.16441,237.833895 236.66173,233.314899 L164.621872,160.992674 L121.006129,204.780926 L193.045987,277.100104 C206.878028,290.98619 225.264225,298.631613 244.825298,298.631613 C264.386371,298.631613 282.772568,290.98619 296.601581,277.103151 L297.528158,276.173755 C326.076424,247.511799 326.076424,200.874416 297.528158,172.209414 L258.060817,132.58973 C255.096375,129.612617 253.461239,125.654305 253.461239,121.446123 C253.461239,117.234893 255.093347,113.279629 258.060817,110.299468 L272.634724,95.6668181 Z" id="Path" fill="#C8AA20"></path>
                    </g>
                </g>
            </g>
        </g>
    </g>
</svg>