<?xml version="1.0" encoding="UTF-8"?>
<svg width="242px" height="157px" viewBox="0 0 242 157" version="1.1" xmlns="http://www.w3.org/2000/svg" xmlns:xlink="http://www.w3.org/1999/xlink">
    <!-- Generator: Sketch 52.6 (67491) - http://www.bohemiancoding.com/sketch -->
    <title>Artboard</title>
    <desc>Created with Sketch.</desc>
    <g id="Artboard" stroke="none" stroke-width="1" fill="none" fill-rule="evenodd">
        <g id="notebook-computer" transform="translate(0.000000, 1.000000)" fill-rule="nonzero">
            <path d="M23.1234237,141.581892 L218.876576,141.581892 C222.926584,141.581892 226.217346,138.264227 226.217346,134.185823 L226.217346,7.39606898 C226.217346,3.31766523 222.926584,0 218.876576,0 L23.1234237,0 C19.0755137,0 15.7826543,3.31766523 15.7826543,7.39606898 L15.7826543,134.185823 C15.7826543,138.264227 19.0776111,141.581892 23.1234237,141.581892 Z M242,147.240941 L242,153.15991 C242,154.727876 240.737388,156 239.181145,156 L2.81885546,156 C1.26261234,156 0,154.727876 0,153.15991 L0,147.240941 L99.3877261,147.240941 C99.878509,148.891321 101.380221,150.102163 103.17766,150.102163 L138.824437,150.102163 C140.619779,150.102163 142.121491,148.893434 142.614371,147.240941 L242,147.240941 Z" id="Shape" fill="#5F2135"></path>
            <path d="M24,13.9590164 C24,13.4296393 24.4606659,13 25.0282722,13 L216.971728,13 C217.539334,13 218,13.4296393 218,13.9590164 L218,129.040984 C218,129.570361 217.539334,130 216.971728,130 L25.0282722,130 C24.4606659,130 24,129.570361 24,129.040984 L24,13.9590164 Z" id="Path" fill="#E6074F"></path>
        </g>
        <g id="calculating" transform="translate(159.500000, 76.500000) rotate(13.000000) translate(-159.500000, -76.500000) translate(111.000000, 27.000000)">
            <g id="Group-5" transform="translate(4.000000, 7.000000)">
                <path d="M5.14281553,0 L30.8571845,0 C33.6974576,0 36,2.30254236 36,5.14281553 L36,30.8571845 C36,33.6974576 33.6974576,36 30.8571845,36 L5.14281553,36 C2.30254236,36 0,33.6974576 0,30.8571845 L0,5.14281553 C0,2.30254236 2.30254236,0 5.14281553,0 Z" id="Path" fill="#F3A830"></path>
                <path d="M25.375,14.875 L20.125,14.875 L20.125,9.625 C20.125,8.17519116 18.9496602,7 17.5,7 C16.0503398,7 14.875,8.17519116 14.875,9.625 L14.875,14.875 L9.625,14.875 C8.17533985,14.875 7,16.0501912 7,17.5 C7,18.9496602 8.17533985,20.125 9.625,20.125 L14.875,20.125 L14.875,25.375 C14.875,26.8246602 16.0503398,28 17.5,28 C18.9496602,28 20.125,26.8246602 20.125,25.375 L20.125,20.125 L25.375,20.125 C26.8246602,20.125 28,18.9496602 28,17.5 C28,16.0501912 26.8246602,14.875 25.375,14.875 Z" id="Path" fill="#FFFFFF"></path>
            </g>
            <g id="Group-4" transform="translate(22.000000, 75.000000) rotate(13.000000) translate(-22.000000, -75.000000) translate(4.000000, 57.000000)">
                <path d="M5.14281553,0 L30.8571845,0 C33.6974576,0 36,2.30254236 36,5.14281553 L36,30.8571845 C36,33.6974576 33.6974576,36 30.8571845,36 L5.14281553,36 C2.30254236,36 0,33.6974576 0,30.8571845 L0,5.14281553 C0,2.30254236 2.30254236,0 5.14281553,0 Z" id="Path" fill="#F3A830"></path>
                <path d="M21.3511811,18.500135 L25.2023622,14.6489626 C26.2658793,13.585448 26.2658793,11.8613049 25.2023622,10.7977902 C24.1388452,9.73442983 22.4146982,9.73427558 21.3511811,10.7977902 L17.5,14.6488083 L13.6488189,10.797636 C12.5853018,9.73412134 10.8611548,9.73412134 9.79763779,10.797636 C8.73412074,11.8611506 8.73412074,13.5852937 9.79763779,14.6488083 L13.6488189,18.500135 L9.79763779,22.3513073 C8.73412074,23.4146677 8.73412074,25.1389651 9.79763779,26.2024797 C10.8611548,27.2658401 12.5853018,27.2658401 13.6488189,26.2024797 L17.5,22.3513073 L21.3511811,26.2024797 C22.4146982,27.2658401 24.1388452,27.2658401 25.2023622,26.2024797 C26.2658793,25.1389651 26.2658793,23.414822 25.2023622,22.3513073 L21.3511811,18.500135 Z" id="Path" fill="#FFFFFF"></path>
            </g>
            <g id="Group-2" transform="translate(72.000000, 25.000000) rotate(-28.000000) translate(-72.000000, -25.000000) translate(54.000000, 7.000000)">
                <path d="M5.14281553,0 L30.8571845,0 C33.6974576,0 36,2.30254236 36,5.14281553 L36,30.8571845 C36,33.6974576 33.6974576,36 30.8571845,36 L5.14281553,36 C2.30254236,36 0,33.6974576 0,30.8571845 L0,5.14281553 C0,2.30254236 2.30254236,0 5.14281553,0 Z" id="Path" fill="#F3A830"></path>
                <path d="M10.6249814,16 L26.3750186,16 C27.8248172,16 29,17.1192297 29,18.5 C29,19.8807703 27.8248172,21 26.3750186,21 L10.6249814,21 C9.17518284,21 8,19.8807703 8,18.5 C8,17.1192297 9.17518284,16 10.6249814,16 Z" id="Path" fill="#FFFFFF"></path>
            </g>
            <g id="Group-3" transform="translate(52.000000, 75.000000) rotate(22.000000) translate(-52.000000, -75.000000) translate(34.000000, 57.000000)">
                <path d="M5.14281553,0 L30.8571845,0 C33.6974576,0 36,2.30254236 36,5.14281553 L36,30.8571845 C36,33.6974576 33.6974576,36 30.8571845,36 L5.14281553,36 C2.30254236,36 0,33.6974576 0,30.8571845 L0,5.14281553 C0,2.30254236 2.30254236,0 5.14281553,0 Z" id="Path" fill="#D7DEED"></path>
                <g id="Group" transform="translate(8.000000, 10.000000)" fill="#FFFFFF">
                    <path d="M2.70914685,0.0711775701 L18.2654476,0.0711775701 C19.6974126,0.0711775701 20.8581399,1.32695327 20.8581399,2.87617757 C20.8581399,4.42540187 19.6974126,5.68117757 18.2654476,5.68117757 L2.70914685,5.68117757 C1.27718182,5.68117757 0.116454545,4.42540187 0.116454545,2.87617757 C0.116454545,1.32695327 1.27718182,0.0711775701 2.70914685,0.0711775701 Z" id="Path"></path>
                    <path d="M2.70914685,11.2913364 L18.2654476,11.2913364 C19.6974126,11.2913364 20.8581399,12.5471121 20.8581399,14.0963364 C20.8581399,15.6455607 19.6974126,16.9013364 18.2654476,16.9013364 L2.70914685,16.9013364 C1.27718182,16.9013364 0.116454545,15.6455607 0.116454545,14.0963364 C0.116454545,12.5471121 1.27718182,11.2913364 2.70914685,11.2913364 Z" id="Path"></path>
                </g>
            </g>
        </g>
        <g id="rubik" transform="translate(71.000000, 70.000000) rotate(-27.000000) translate(-71.000000, -70.000000) translate(47.000000, 42.000000)">
            <path d="M0,16.003464 L0,39.2457944 C0,40.1481738 0.425837352,41.0509861 1.27795863,41.6316438 L21.0320829,55.0919916 C22.8086372,56.3026695 25.1770788,56.3026695 26.9536332,55.0919916 L46.7077575,41.6316438 C47.5594323,41.0509861 48,40.1585659 48,39.2561865 L47.9857161,16 L0,16.003464 Z" id="Path" fill="#29CE69"></path>
            <path d="M48,30.0125706 L26.9686901,44.1044305 C26.0779491,44.7030386 25.0389746,45.0017018 24,45 L24,17.0038455 L47.9919633,17 L48,30.0125706 Z" id="Path" fill="#5AD6FF"></path>
            <path d="M26.9423358,43.7405391 L37,37 L37,48.3500124 L26.9423358,55.1121545 C26.0599449,55.7055998 25.0297512,56.0016871 24,56 L24,44.6283774 C25.0297512,44.6300717 26.0595023,44.3339844 26.9423358,43.7405391 Z" id="Path" fill="#FD5C6F"></path>
            <path d="M37,37.3050153 L26.942436,44.1044031 C26.0595724,44.7030295 25.0297862,45.0017018 24,45 L24,17.002991 L37,17 L37,37.3050153 Z" id="Path" fill="#F4E74D"></path>
            <path d="M24,16 L0,16 L0,39.2445907 C0,40.1470579 0.425837352,41.049958 1.27795863,41.6306722 L21.0320829,55.0923289 C21.9225919,55.6990259 22.9612959,56.0017248 24,56 L24,16 Z" id="Path" fill="#5AD6FF"></path>
            <path d="M0,30.0062386 L21.0320829,44.1043075 C21.9225919,44.7029978 22.9612959,45.001702 24,45 L24,17 L0,17 L0,30.0062386 Z" id="Path" fill="#29CE69"></path>
            <path d="M11,16 L11,48.1789272 L21.057564,55.0923518 C21.9404275,55.6990356 22.9702138,56.0012949 24,56 L24,16.0008661 L11,16 Z" id="Path" fill="#FFCD00"></path>
            <path d="M21.0383297,0.894219958 L1.27823331,14.1501674 C-0.426077769,15.2938478 -0.426077769,17.7061521 1.27823331,18.8498327 L21.0383297,32.10578 C22.8154211,33.2980733 25.1845788,33.2980733 26.9616703,32.10578 L46.7217667,18.8498327 C48.4260778,17.7061521 48.4260778,15.2938478 46.7217667,14.1501674 L26.9616703,0.894219958 C25.1845788,-0.298073319 22.8154211,-0.298073319 21.0383297,0.894219958 Z" id="Path" fill="#FF8A98"></path>
            <path d="M21.057564,43.7405391 L11,37 L11,48.3500124 L21.057564,55.1121545 C21.9404275,55.7055998 22.9702138,56.0016871 24,56 L24,44.6283774 C22.9702138,44.6300717 21.9404275,44.3339844 21.057564,43.7405391 Z" id="Path" fill="#F6334C"></path>
            <path d="M11,37.3044282 L21.057564,44.1043348 C21.9404275,44.7030069 22.9702138,45.001702 24,45 L24,17.0008547 L11,17 L11,37.3044282 Z" id="Path" fill="#EEDB00"></path>
            <path d="M46.7255349,18.4553761 C48.4248217,17.2798138 48.4248217,14.800263 46.7255349,13.6247008 L44.7315329,12.2457601 L37.1468462,7 L11,25.083145 L21.1178127,32.0808523 C22.8896652,33.3063826 25.2513935,33.3063826 27.0232461,32.0808523 L44.8018729,19.7856637 L46.7255349,18.4553761 Z" id="Path" fill="#A4E7FF"></path>
            <path d="M37,25.0830116 L10.8531538,7 L1.27446508,13.6243741 C-0.424821692,14.7999561 -0.424821692,17.2795488 1.27446508,18.4551309 L4.1908989,20.4718545 L20.9763087,32.0808368 C22.7481612,33.3063877 25.1103347,33.3063877 26.8821873,32.0808368 L27.2824123,31.8038167 L37,25.0830116 Z" id="Path" fill="#73DA8C"></path>
            <path d="M24,17 L11,25.5296109 L11.9953678,26.1830942 L21.063045,32.132687 C22.8253065,33.2891043 25.1742507,33.2891043 26.9365123,32.132687 L37,25.5296109 L24,17 Z" id="Path" fill="#E8D83D"></path>
        </g>
        <circle id="Oval" fill="#FFFFFF" cx="74" cy="25" r="5"></circle>
        <circle id="Oval-Copy" stroke="#FFFFFF" cx="41" cy="22" r="2"></circle>
        <circle id="Oval-Copy-8" stroke="#FFFFFF" stroke-width="2" cx="32" cy="53" r="3"></circle>
        <circle id="Oval-Copy-2" fill="#FFFFFF" cx="31" cy="32" r="2"></circle>
        <circle id="Oval-Copy-3" fill="#FFFFFF" cx="52" cy="33" r="3"></circle>
        <circle id="Oval-Copy-7" stroke="#FFFFFF" stroke-width="3" transform="translate(204.080188, 82.934310) rotate(-69.000000) translate(-204.080188, -82.934310) " cx="204.080188" cy="82.93431" r="5"></circle>
        <circle id="Oval-Copy-6" fill="#FFFFFF" transform="translate(189.453304, 92.667360) rotate(-69.000000) translate(-189.453304, -92.667360) " cx="189.453304" cy="92.6673603" r="2"></circle>
        <circle id="Oval-Copy-5" fill="#FFFFFF" transform="translate(195.205429, 125.586844) rotate(-69.000000) translate(-195.205429, -125.586844) " cx="195.205429" cy="125.586844" r="2"></circle>
        <circle id="Oval-Copy-4" fill="#FFFFFF" transform="translate(203.664736, 106.340023) rotate(-69.000000) translate(-203.664736, -106.340023) " cx="203.664736" cy="106.340023" r="3"></circle>
    </g>
</svg>