<?xml version="1.0" encoding="UTF-8"?>
<svg width="505px" height="505px" viewBox="0 0 505 505" version="1.1" xmlns="http://www.w3.org/2000/svg" xmlns:xlink="http://www.w3.org/1999/xlink">
    <!-- Generator: Sketch 52.6 (67491) - http://www.bohemiancoding.com/sketch -->
    <title>idea</title>
    <desc>Created with Sketch.</desc>
    <g id="Page-1" stroke="none" stroke-width="1" fill="none" fill-rule="evenodd">
        <g id="idea">
            <path d="M412.751,168.566 C412.751,79.557 341.071,7.877 252.062,7.877 C163.053,7.877 91.372,79.557 91.372,168.566 C91.372,232.369 128.394,287.508 182.744,313.501 L182.744,344.221 L321.378,344.221 L321.378,313.501 C375.729,287.508 412.751,232.369 412.751,168.566 Z" id="Path" fill="#FFFFFF"></path>
            <path d="M321.378,352.098 L182.745,352.098 C178.019,352.098 174.868,348.947 174.868,344.221 L174.868,318.227 C118.942,289.082 83.496,231.581 83.496,168.565 C83.495,75.618 159.114,0 252.062,0 C345.01,0 420.628,75.618 420.628,168.566 C420.628,231.581 385.182,289.083 329.256,318.228 L329.256,344.222 C329.255,348.948 326.105,352.098 321.378,352.098 Z M190.622,336.345 L313.502,336.345 L313.502,313.502 C313.502,310.351 315.077,307.988 318.228,306.413 C371.003,281.207 404.874,226.856 404.874,168.567 C404.874,84.284 336.345,15.755 252.062,15.755 C167.779,15.755 99.249,84.283 99.249,168.566 C99.249,226.855 133.12,281.206 185.895,306.412 C188.258,307.987 190.621,310.35 190.621,313.501 L190.621,336.345 L190.622,336.345 Z" id="Shape" fill="#183651" fill-rule="nonzero"></path>
            <path d="M215.828,342.646 L215.828,292.234 L196.923,282.782 C152.025,261.514 124.455,217.404 124.455,167.779 C124.455,97.674 181.169,40.173 252.061,40.173 C322.166,40.173 379.667,96.887 379.667,167.779 C379.667,217.404 352.098,260.727 307.199,282.782 L288.294,292.234 L288.294,342.646 L215.828,342.646 Z" id="Path" fill="#EA3959"></path>
            <rect id="Rectangle" fill="#F7AEC1" x="169.354" y="344.222" width="164.628" height="118.942"></rect>
            <path d="M334.769,471.04 L169.354,471.04 C164.628,471.04 161.477,467.889 161.477,463.163 L161.477,344.222 C161.477,339.496 164.628,336.345 169.354,336.345 L334.769,336.345 C339.495,336.345 342.646,339.496 342.646,344.222 L342.646,463.164 C342.646,467.889 338.708,471.04 334.769,471.04 Z M177.231,455.286 L326.893,455.286 L326.893,352.098 L177.231,352.098 L177.231,455.286 Z" id="Shape" fill="#183651" fill-rule="nonzero"></path>
            <rect id="Rectangle" fill="#FFFFFF" x="205.588" y="463.163" width="92.948" height="33.083"></rect>
            <path d="M298.535,504.123 L205.587,504.123 C200.861,504.123 197.71,500.972 197.71,496.246 L197.71,463.163 C197.71,458.437 200.861,455.286 205.587,455.286 L298.535,455.286 C303.261,455.286 306.412,458.437 306.412,463.163 L306.412,496.246 C306.412,500.972 303.262,504.123 298.535,504.123 Z M213.465,488.369 L290.659,488.369 L290.659,471.04 L213.465,471.04 L213.465,488.369 Z" id="Shape" fill="#183651" fill-rule="nonzero"></path>
            <path d="M342.646,379.668 L159.902,379.668 C155.176,379.668 152.025,376.517 152.025,371.791 C152.025,367.065 155.176,363.914 159.902,363.914 L342.647,363.914 C347.373,363.914 350.524,367.065 350.524,371.791 C350.524,376.517 347.372,379.668 342.646,379.668 Z" id="Path" fill="#183651"></path>
            <path d="M342.646,411.963 L159.902,411.963 C155.176,411.963 152.025,408.812 152.025,404.086 C152.025,399.36 155.176,396.209 159.902,396.209 L342.647,396.209 C347.373,396.209 350.524,399.36 350.524,404.086 C350.523,408.812 347.372,411.963 342.646,411.963 Z" id="Path" fill="#183651"></path>
            <g id="Group" fill="#183651">
                <path d="M342.646,443.471 L159.902,443.471 C155.176,443.471 152.025,440.32 152.025,435.594 C152.025,430.868 155.176,427.717 159.902,427.717 L342.647,427.717 C347.373,427.717 350.524,430.868 350.524,435.594 C350.524,440.32 347.372,443.471 342.646,443.471 Z" id="Path"></path>
                <path d="M252.062,238.671 C129.969,238.671 0,213.465 0,167.778 C0,134.695 66.166,116.578 105.551,109.489 C109.489,108.701 114.216,111.852 115.003,115.791 C115.791,119.729 112.64,124.456 108.701,125.243 C44.898,137.846 15.753,155.963 15.753,168.566 C15.753,191.409 105.55,223.704 252.061,223.704 C398.572,223.704 488.369,191.409 488.369,168.566 C488.369,155.963 460.012,137.846 395.421,125.243 C391.483,124.455 388.332,120.517 389.119,115.791 C389.907,111.853 393.845,108.702 398.571,109.489 C437.956,117.366 504.122,134.695 504.122,167.778 C504.123,214.252 374.154,238.671 252.062,238.671 Z" id="Path"></path>
                <path d="M207.951,223.705 C112.64,147.298 25.994,46.474 55.138,11.028 C74.043,-12.603 125.243,6.302 165.415,26.782 C169.353,28.357 170.929,33.084 168.566,37.022 C166.991,40.96 162.264,42.536 158.326,40.173 C101.612,12.603 74.043,11.815 66.954,20.48 C52.776,38.597 103.188,119.729 217.403,211.102 C331.618,302.475 422.203,333.194 436.381,315.077 C443.47,306.412 436.381,278.843 396.209,230.006 C393.058,226.855 393.846,221.341 396.997,218.978 C400.148,215.827 405.662,216.615 408.025,219.766 C437.17,254.424 467.102,300.898 448.197,324.529 C412.751,371.003 256,261.514 207.951,223.705 Z" id="Path"></path>
                <path d="M55.138,324.529 C36.233,300.898 66.953,254.424 95.31,219.766 C98.461,216.615 103.187,215.828 106.338,218.978 C109.489,222.129 110.276,226.855 107.126,230.006 C66.954,278.843 60.652,306.412 66.954,315.077 C73.256,322.954 95.311,323.742 140.997,303.262 C183.532,284.357 235.52,251.274 285.932,211.102 C400.935,119.729 451.348,38.597 437.169,20.48 C430.08,11.815 401.723,12.603 344.221,41.748 C340.283,43.323 335.556,42.536 333.981,38.597 C332.406,34.659 333.193,29.932 337.132,28.357 C378.092,7.877 430.867,-11.815 449.772,11.815 C478.129,48.049 392.27,148.086 296.96,224.492 C245.76,265.452 192.985,299.323 148.874,319.015 C121.305,329.255 72.468,347.372 55.138,324.529 Z" id="Path"></path>
                <rect id="Rectangle" x="435.594" y="377.305" width="15.754" height="15.754"></rect>
                <rect id="Rectangle" x="435.594" y="421.415" width="15.754" height="15.754"></rect>
                <rect id="Rectangle" x="435.594" y="464.738" width="15.754" height="15.754"></rect>
                <rect id="Rectangle" x="52.775" y="377.305" width="15.754" height="15.754"></rect>
                <rect id="Rectangle" x="52.775" y="421.415" width="15.754" height="15.754"></rect>
                <rect id="Rectangle" x="52.775" y="464.738" width="15.754" height="15.754"></rect>
            </g>
            <polygon id="Path" fill="#FFFFFF" points="246.548 86.646 271.754 86.646 253.637 127.606 280.418 127.606 236.308 189.046 248.123 147.298 223.705 147.298"></polygon>
        </g>
    </g>
</svg>