<?xml version="1.0" encoding="UTF-8"?>
<svg width="505px" height="505px" viewBox="0 0 505 505" version="1.1" xmlns="http://www.w3.org/2000/svg" xmlns:xlink="http://www.w3.org/1999/xlink">
    <!-- Generator: Sketch 52.6 (67491) - http://www.bohemiancoding.com/sketch -->
    <title>briefcase</title>
    <desc>Created with Sketch.</desc>
    <g id="Page-1" stroke="none" stroke-width="1" fill="none" fill-rule="evenodd">
        <g id="briefcase">
            <circle id="Oval" fill="#EA3959" cx="252.062" cy="252.062" r="252.062"></circle>
            <g id="Group" transform="translate(99.000000, 96.000000)" fill="#183651">
                <rect id="Rectangle" x="0.249" y="0.886" width="15.754" height="15.754"></rect>
                <rect id="Rectangle" x="0.249" y="57.6" width="15.754" height="15.754"></rect>
                <rect id="Rectangle" x="0.249" y="113.526" width="15.754" height="15.754"></rect>
                <rect id="Rectangle" x="290.12" y="0.886" width="15.754" height="15.754"></rect>
                <rect id="Rectangle" x="290.12" y="57.6" width="15.754" height="15.754"></rect>
                <rect id="Rectangle" x="290.12" y="113.526" width="15.754" height="15.754"></rect>
            </g>
            <path d="M401.723,268.603 L102.4,268.603 C89.797,268.603 80.345,278.843 80.345,290.658 L80.345,473.403 C80.345,486.006 90.585,495.458 102.4,495.458 L402.511,495.458 C415.114,495.458 424.566,485.218 424.566,473.403 L424.566,290.658 C424.566,278.843 414.326,268.603 401.723,268.603 Z" id="Path" fill="#FFFFFF"></path>
            <path d="M401.723,504.123 L102.4,504.123 C85.858,504.123 72.468,490.732 72.468,474.191 L72.468,290.658 C72.468,274.116 85.859,260.726 102.4,260.726 L402.511,260.726 C419.053,260.726 432.443,274.117 432.443,290.658 L432.443,473.403 C432.443,490.732 418.265,504.123 401.723,504.123 Z M102.4,276.48 C94.523,276.48 88.222,282.782 88.222,290.658 L88.222,473.403 C88.222,481.28 94.524,487.581 102.4,487.581 L402.511,487.581 C410.388,487.581 416.689,481.279 416.689,473.403 L416.689,290.658 C416.689,282.781 410.387,276.48 402.511,276.48 L102.4,276.48 Z" id="Shape" fill="#183651" fill-rule="nonzero"></path>
            <rect id="Rectangle" fill="#BA2D46" x="111.065" y="300.111" width="281.206" height="164.628"></rect>
            <g id="Group" transform="translate(72.000000, 200.000000)" fill="#183651">
                <path d="M329.723,191.483 L30.4,191.483 C13.858,191.483 0.468,178.092 0.468,161.551 C0.468,156.825 3.619,153.674 8.345,153.674 C13.071,153.674 16.222,156.825 16.222,161.551 C16.222,169.428 22.524,175.729 30.4,175.729 L330.511,175.729 C338.388,175.729 344.689,169.427 344.689,161.551 C344.689,156.825 347.84,153.674 352.566,153.674 C357.292,153.674 360.443,156.825 360.443,161.551 C360.443,177.305 346.265,191.483 329.723,191.483 Z" id="Path"></path>
                <path d="M272.222,76.48 L87.902,76.48 C83.176,76.48 80.025,73.329 80.025,68.603 L80.025,7.951 C80.025,3.225 83.176,0.074 87.902,0.074 L271.434,0.074 C276.16,0.074 279.311,3.225 279.311,7.951 L279.311,68.603 C280.098,73.329 276.16,76.48 272.222,76.48 Z M95.778,60.726 L263.556,60.726 L263.556,15.828 L95.778,15.828 L95.778,60.726 Z" id="Shape" fill-rule="nonzero"></path>
            </g>
            <path d="M233.157,341.071 L233.157,404.086 C233.157,415.114 241.822,422.991 252.062,422.991 C263.09,422.991 270.967,414.326 270.967,404.086 L270.967,341.071 L233.157,341.071 Z" id="Path" fill="#E24B71"></path>
            <path d="M252.062,431.655 C237.096,431.655 225.28,419.84 225.28,404.873 L225.28,341.858 C225.28,337.132 228.431,333.981 233.157,333.981 L271.754,333.981 C276.48,333.981 279.631,337.132 279.631,341.858 L279.631,404.873 C278.843,419.052 267.028,431.655 252.062,431.655 Z M241.034,348.948 L241.034,404.086 C241.034,410.388 245.76,415.114 252.062,415.114 C258.364,415.114 263.09,410.388 263.09,404.086 L263.09,348.948 L241.034,348.948 Z" id="Shape" fill="#183651" fill-rule="nonzero"></path>
            <path d="M285.932,348.948 L218.19,348.948 C213.464,348.948 210.313,345.797 210.313,341.071 C210.313,336.345 213.464,333.194 218.19,333.194 L285.932,333.194 C290.658,333.194 293.809,336.345 293.809,341.071 C293.809,345.797 290.658,348.948 285.932,348.948 Z" id="Path" fill="#183651"></path>
            <path d="M333.982,87.434 L306.413,63.803 L195.348,63.803 C188.259,81.92 184.32,114.215 184.32,133.908 L184.32,218.979 C184.32,227.644 190.622,235.521 199.286,236.308 C208.738,237.096 217.403,230.006 217.403,219.766 C217.403,228.431 224.492,236.308 233.945,236.308 L234.733,236.308 C243.398,236.308 251.275,229.219 251.275,219.766 C251.275,228.431 258.364,236.308 267.817,236.308 L268.605,236.308 C277.27,236.308 285.147,229.219 285.147,219.766 L285.147,220.554 C285.147,229.219 292.236,237.096 301.689,237.096 L302.477,237.096 C311.142,237.096 319.019,230.007 319.019,220.554 L319.019,161.477 C319.019,170.929 326.896,178.806 336.348,178.019 C345.013,177.231 352.102,169.354 352.102,160.69 L352.102,142.573 C351.311,128.394 345.009,96.098 333.982,87.434 Z" id="Path" fill="#F7AEC1"></path>
            <path d="M301.686,244.185 L300.898,244.185 C294.596,244.185 288.295,241.822 284.356,237.883 C280.418,241.821 274.116,244.185 268.602,244.185 L267.814,244.185 C261.512,244.185 255.999,241.822 251.272,237.883 C247.334,241.821 241.032,244.185 234.73,244.185 L233.942,244.185 C227.64,244.185 222.127,241.822 217.4,237.883 C212.674,242.609 205.585,244.972 198.495,244.185 C186.68,242.61 176.44,232.37 176.44,218.979 L176.44,133.908 C176.44,112.64 180.378,79.557 187.468,60.653 C189.043,57.502 191.406,55.927 194.557,55.927 L305.622,55.927 C307.197,55.927 309.56,56.715 310.348,57.502 L337.917,81.133 C352.095,92.948 357.609,129.182 357.609,142.573 L357.609,160.69 C357.609,174.081 347.369,185.108 333.978,185.896 L332.403,185.896 C329.252,185.896 326.101,185.108 323.738,184.321 L323.738,219.767 C325.317,233.157 314.289,244.185 301.686,244.185 Z M292.234,219.766 C292.234,224.492 296.172,228.431 300.899,228.431 L301.687,228.431 C306.413,228.431 310.352,224.493 310.352,219.766 L310.352,161.477 C310.352,156.751 313.503,153.6 318.229,153.6 C322.955,153.6 326.106,156.751 326.106,161.477 C326.106,166.203 330.044,170.142 334.771,170.142 C339.498,170.142 343.436,165.416 343.436,160.69 L343.436,142.573 C343.436,128.395 337.134,100.038 329.258,92.948 L303.262,71.68 L200.862,71.68 C195.348,88.222 192.197,115.791 192.197,133.908 L192.197,218.979 C192.197,223.705 195.348,227.644 200.074,228.431 C204.8,229.219 209.526,225.28 209.526,219.766 C209.526,215.04 212.677,211.889 217.403,211.889 C222.129,211.889 225.28,215.04 225.28,219.766 C225.28,224.492 229.218,228.431 233.945,228.431 L234.733,228.431 C239.459,228.431 243.398,224.493 243.398,219.766 C243.398,215.04 246.549,211.889 251.275,211.889 C256.001,211.889 259.152,215.04 259.152,219.766 C259.152,224.492 263.09,228.431 267.817,228.431 L268.605,228.431 C273.331,228.431 277.27,224.493 277.27,219.766 C277.27,215.04 280.421,211.889 285.147,211.889 C289.873,211.889 292.234,215.04 292.234,219.766 Z" id="Shape" fill="#183651" fill-rule="nonzero"></path>
            <rect id="Rectangle" fill="#FFFFFF" x="181.169" y="7.877" width="147.298" height="55.926"></rect>
            <path d="M328.468,71.68 L181.169,71.68 C176.443,71.68 173.292,68.529 173.292,63.803 L173.292,7.877 C173.292,3.151 176.443,0 181.169,0 L328.467,0 C333.193,0 336.344,3.151 336.344,7.877 L336.344,63.803 C336.345,67.742 332.406,71.68 328.468,71.68 Z M189.046,55.926 L320.591,55.926 L320.591,15.754 L189.046,15.754 L189.046,55.926 Z" id="Shape" fill="#183651" fill-rule="nonzero"></path>
            <path d="M284.357,227.643 C279.631,227.643 276.48,224.492 276.48,219.766 L276.48,178.018 C276.48,173.292 279.631,170.141 284.357,170.141 C289.083,170.141 292.234,173.292 292.234,178.018 L292.234,219.766 C292.234,224.492 288.295,227.643 284.357,227.643 Z" id="Path" fill="#183651"></path>
            <path d="M250.486,227.643 C245.76,227.643 242.609,224.492 242.609,219.766 L242.609,178.018 C242.609,173.292 245.76,170.141 250.486,170.141 C255.212,170.141 258.363,173.292 258.363,178.018 L258.363,219.766 C258.363,223.705 255.212,227.643 250.486,227.643 Z" id="Path" fill="#183651"></path>
            <path d="M217.403,227.643 C212.677,227.643 209.526,224.492 209.526,219.766 L209.526,178.018 C209.526,173.292 212.677,170.141 217.403,170.141 C222.129,170.141 225.28,173.292 225.28,178.018 L225.28,219.766 C225.28,223.705 221.342,227.643 217.403,227.643 Z" id="Path" fill="#183651"></path>
            <path d="M317.44,169.354 C312.714,169.354 309.563,166.203 309.563,161.477 L309.563,137.059 C309.563,132.333 312.714,129.182 317.44,129.182 C322.166,129.182 325.317,132.333 325.317,137.059 L325.317,161.477 C325.317,165.415 322.166,169.354 317.44,169.354 Z" id="Path" fill="#183651"></path>
        </g>
    </g>
</svg>