<?xml version="1.0" encoding="UTF-8"?>
<svg width="100px" height="100px" viewBox="0 0 100 100" version="1.1" xmlns="http://www.w3.org/2000/svg" xmlns:xlink="http://www.w3.org/1999/xlink">
    <!-- Generator: Sketch 52.6 (67491) - http://www.bohemiancoding.com/sketch -->
    <title>sorry</title>
    <desc>Created with Sketch.</desc>
    <g id="Page-1" stroke="none" stroke-width="1" fill="none" fill-rule="evenodd">
        <g id="sorry" fill="#ED555E" fill-rule="nonzero">
            <path d="M50,100 C22.3857625,100 0,77.6142375 0,50 C0,22.3857625 22.3857625,0 50,0 C77.6142375,0 100,22.3857625 100,50 C100,77.6142375 77.6142375,100 50,100 Z M50,90 C72.09139,90 90,72.09139 90,50 C90,27.90861 72.09139,10 50,10 C27.90861,10 10,27.90861 10,50 C10,72.09139 27.90861,90 50,90 Z M67,47 C63.1340068,47 60,43.8659932 60,40 C60,36.1340068 63.1340068,33 67,33 C70.8659932,33 74,36.1340068 74,40 C74,43.8659932 70.8659932,47 67,47 Z M33,47 C29.1340068,47 26,43.8659932 26,40 C26,36.1340068 29.1340068,33 33,33 C36.8659932,33 40,36.1340068 40,40 C40,43.8659932 36.8659932,47 33,47 Z M35.9678093,72.3002958 C33.739881,73.9317971 30.6111951,73.4482975 28.9796938,71.2203691 C27.3481925,68.9924408 27.8316922,65.8637549 30.0596205,64.2322536 C36.3654055,59.6145574 42.8730134,57.2337253 49.5026835,57.2337253 C56.1306012,57.2337253 62.6433673,59.6132607 68.9626659,64.2284921 C71.1926716,65.8571528 71.6801582,68.9852199 70.0514975,71.2152257 C68.4228369,73.4452314 65.2947697,73.932718 63.064764,72.3040573 C58.3708248,68.8758895 53.8762366,67.2337253 49.5026835,67.2337253 C45.1308826,67.2337253 40.6458449,68.8745927 35.9678093,72.3002958 Z"></path>
        </g>
    </g>
</svg>