<?xml version="1.0" encoding="UTF-8"?>
<svg width="504px" height="505px" viewBox="0 0 504 505" version="1.1" xmlns="http://www.w3.org/2000/svg" xmlns:xlink="http://www.w3.org/1999/xlink">
    <!-- Generator: Sketch 52.6 (67491) - http://www.bohemiancoding.com/sketch -->
    <title>teamwork</title>
    <desc>Created with Sketch.</desc>
    <g id="Page-1" stroke="none" stroke-width="1" fill="none" fill-rule="evenodd">
        <g id="teamwork">
            <circle id="Oval" fill="#EA3959" cx="252.062" cy="251.274" r="251.274"></circle>
            <path d="M300.898,244.972 C287.507,255.212 270.966,261.514 252.061,261.514 C233.944,261.514 216.615,255.212 203.224,244.972 C166.99,263.089 141.784,300.11 141.784,343.434 L141.784,379.668 L362.338,379.668 L362.338,343.434 C362.338,300.111 337.132,262.302 300.898,244.972 Z" id="Path" fill="#183651"></path>
            <path d="M362.338,387.545 L141.785,387.545 C137.059,387.545 133.908,384.394 133.908,379.668 L133.908,343.434 C133.908,298.536 159.114,257.576 200.074,237.883 C202.437,236.308 206.376,237.095 208.739,238.671 C221.342,248.911 236.308,253.637 252.85,253.637 C269.392,253.637 283.57,248.123 296.961,238.671 C299.324,237.096 302.475,236.308 305.626,237.883 C346.586,257.575 371.792,298.535 371.792,343.434 L371.792,379.668 C370.215,383.606 366.277,387.545 362.338,387.545 Z M149.662,371.791 L354.462,371.791 L354.462,343.434 C354.462,305.625 333.982,271.754 301.687,253.637 C286.721,263.877 270.179,269.391 252.062,269.391 C233.945,269.391 217.404,263.877 202.437,253.637 C169.354,271.754 149.662,305.625 149.662,343.434 L149.662,371.791 Z" id="Shape" fill="#FFFFFF" fill-rule="nonzero"></path>
            <path d="M173.292,348.16 L173.292,343.434 C173.292,319.016 184.32,296.172 203.224,281.206 C218.19,288.295 234.732,292.234 252.061,292.234 C269.39,292.234 285.932,288.296 300.898,281.206 C319.803,296.172 330.83,318.228 330.83,343.434 L330.83,348.16 L173.292,348.16 Z" id="Path" fill="#E24B71"></path>
            <g id="Group" transform="translate(67.000000, 51.000000)" fill="#183651">
                <rect id="Rectangle" x="353.628" y="165.615" width="15.754" height="15.754"></rect>
                <rect id="Rectangle" x="353.628" y="197.123" width="15.754" height="15.754"></rect>
                <rect id="Rectangle" x="353.628" y="227.843" width="15.754" height="15.754"></rect>
                <rect id="Rectangle" x="0.742" y="165.615" width="15.754" height="15.754"></rect>
                <rect id="Rectangle" x="0.742" y="197.123" width="15.754" height="15.754"></rect>
                <rect id="Rectangle" x="0.742" y="227.843" width="15.754" height="15.754"></rect>
                <rect id="Rectangle" x="208.692" y="393.258" width="15.754" height="15.754"></rect>
                <rect id="Rectangle" x="177.185" y="393.258" width="15.754" height="15.754"></rect>
                <rect id="Rectangle" x="145.677" y="393.258" width="15.754" height="15.754"></rect>
                <rect id="Rectangle" x="208.692" y="0.988" width="15.754" height="15.754"></rect>
                <rect id="Rectangle" x="177.185" y="0.988" width="15.754" height="15.754"></rect>
                <rect id="Rectangle" x="145.677" y="0.988" width="15.754" height="15.754"></rect>
            </g>
            <circle id="Oval" fill="#E24B71" cx="252.062" cy="182.745" r="51.2"></circle>
            <path d="M252.062,241.034 C219.767,241.034 192.985,215.04 192.985,181.957 C192.985,148.874 218.979,122.88 252.062,122.88 C284.357,122.88 311.139,148.874 311.139,181.957 C311.139,215.04 284.357,241.034 252.062,241.034 Z M252.062,139.422 C228.431,139.422 208.739,159.114 208.739,182.745 C208.739,206.376 228.431,226.068 252.062,226.068 C275.693,226.068 295.385,206.376 295.385,182.745 C295.385,159.114 275.692,139.422 252.062,139.422 Z" id="Shape" fill="#FFFFFF" fill-rule="nonzero"></path>
            <circle id="Oval" fill="#E24B71" cx="75.618" cy="395.422" r="33.871"></circle>
            <path d="M75.618,437.169 C52.775,437.169 33.87,418.264 33.87,395.421 C33.87,372.578 52.775,353.673 75.618,353.673 C98.461,353.673 117.366,372.578 117.366,395.421 C117.366,418.265 98.462,437.169 75.618,437.169 Z M75.618,369.428 C61.44,369.428 49.624,381.243 49.624,395.422 C49.624,409.6 61.439,421.416 75.618,421.416 C89.797,421.416 101.612,409.601 101.612,395.422 C101.612,381.243 89.797,369.428 75.618,369.428 Z" id="Shape" fill="#FFFFFF" fill-rule="nonzero"></path>
            <path d="M75.618,429.292 C38.596,429.292 8.664,459.224 8.664,496.246 L142.572,496.246 C142.572,459.225 112.64,429.292 75.618,429.292 Z" id="Path" fill="#E24B71"></path>
            <path d="M142.572,504.123 L8.665,504.123 C3.939,504.123 0.788,500.972 0.788,496.246 C0.788,455.286 34.659,421.415 75.619,421.415 C116.579,421.415 150.45,455.286 150.45,496.246 C150.449,500.972 147.298,504.123 142.572,504.123 Z M16.542,488.369 L133.908,488.369 C129.97,459.224 105.551,437.169 74.831,437.169 C44.111,437.169 20.48,459.225 16.542,488.369 Z" id="Shape" fill="#FFFFFF" fill-rule="nonzero"></path>
            <circle id="Oval" fill="#E24B71" cx="75.618" cy="41.748" r="33.871"></circle>
            <path d="M75.618,83.495 C52.775,83.495 33.87,64.59 33.87,41.747 C33.87,18.904 52.775,0 75.618,0 C98.461,0 117.366,18.905 117.366,41.748 C117.366,64.591 98.462,83.495 75.618,83.495 Z M75.618,15.754 C61.44,15.754 49.624,27.569 49.624,41.748 C49.624,55.927 61.44,67.742 75.618,67.742 C89.796,67.742 101.612,55.927 101.612,41.748 C101.612,27.569 89.797,15.754 75.618,15.754 Z" id="Shape" fill="#FFFFFF" fill-rule="nonzero"></path>
            <path d="M75.618,75.618 C38.596,75.618 8.664,105.55 8.664,142.572 L142.572,142.572 C142.572,105.551 112.64,75.618 75.618,75.618 Z" id="Path" fill="#E24B71"></path>
            <path d="M142.572,150.449 L8.665,150.449 C3.939,150.449 0.788,147.298 0.788,142.572 C0.788,101.612 34.659,67.741 75.619,67.741 C116.579,67.741 150.45,101.612 150.45,142.572 C150.449,147.298 147.298,150.449 142.572,150.449 Z M16.542,134.695 L133.908,134.695 C129.97,105.55 105.551,83.495 74.831,83.495 C44.111,83.495 20.48,105.551 16.542,134.695 Z" id="Shape" fill="#FFFFFF" fill-rule="nonzero"></path>
            <circle id="Oval" fill="#E24B71" cx="428.505" cy="395.422" r="33.871"></circle>
            <path d="M428.505,437.169 C405.662,437.169 386.757,418.264 386.757,395.421 C386.757,372.578 405.662,353.673 428.505,353.673 C451.348,353.673 470.253,372.578 470.253,395.421 C470.252,418.265 451.348,437.169 428.505,437.169 Z M428.505,369.428 C414.327,369.428 402.511,381.243 402.511,395.422 C402.511,409.6 414.326,421.416 428.505,421.416 C442.683,421.416 454.499,409.601 454.499,395.422 C454.498,381.243 442.683,369.428 428.505,369.428 Z" id="Shape" fill="#FFFFFF" fill-rule="nonzero"></path>
            <path d="M428.505,429.292 C391.483,429.292 361.551,459.224 361.551,496.246 L495.459,496.246 C495.458,459.225 465.526,429.292 428.505,429.292 Z" id="Path" fill="#E24B71"></path>
            <path d="M495.458,504.123 L361.551,504.123 C356.825,504.123 353.674,500.972 353.674,496.246 C353.674,455.286 387.545,421.415 428.505,421.415 C469.465,421.415 503.336,455.286 503.336,496.246 C503.335,500.972 500.185,504.123 495.458,504.123 Z M370.215,488.369 L487.581,488.369 C483.643,459.224 459.224,437.169 428.504,437.169 C397.784,437.169 373.366,459.225 370.215,488.369 Z" id="Shape" fill="#FFFFFF" fill-rule="nonzero"></path>
            <circle id="Oval" fill="#E24B71" cx="428.505" cy="41.748" r="33.871"></circle>
            <path d="M428.505,83.495 C405.662,83.495 386.757,64.59 386.757,41.747 C386.757,18.904 405.662,0 428.505,0 C451.348,0 470.253,18.905 470.253,41.748 C470.253,64.591 451.348,83.495 428.505,83.495 Z M428.505,15.754 C414.327,15.754 402.511,27.569 402.511,41.748 C402.511,55.927 414.326,67.742 428.505,67.742 C442.683,67.742 454.499,55.927 454.499,41.748 C454.499,27.569 442.683,15.754 428.505,15.754 Z" id="Shape" fill="#FFFFFF" fill-rule="nonzero"></path>
            <path d="M428.505,75.618 C391.483,75.618 361.551,105.55 361.551,142.572 L495.459,142.572 C495.458,105.551 465.526,75.618 428.505,75.618 Z" id="Path" fill="#E24B71"></path>
            <path d="M495.458,150.449 L361.551,150.449 C356.825,150.449 353.674,147.298 353.674,142.572 C353.674,101.612 387.545,67.741 428.505,67.741 C469.465,67.741 503.336,101.612 503.336,142.572 C503.335,147.298 500.185,150.449 495.458,150.449 Z M370.215,134.695 L487.581,134.695 C483.643,105.55 459.224,83.495 428.504,83.495 C397.784,83.495 373.366,105.551 370.215,134.695 Z" id="Shape" fill="#FFFFFF" fill-rule="nonzero"></path>
        </g>
    </g>
</svg>