<?xml version="1.0" encoding="UTF-8"?>
<svg width="505px" height="505px" viewBox="0 0 505 505" version="1.1" xmlns="http://www.w3.org/2000/svg" xmlns:xlink="http://www.w3.org/1999/xlink">
    <!-- Generator: Sketch 52.6 (67491) - http://www.bohemiancoding.com/sketch -->
    <title>wrench</title>
    <desc>Created with Sketch.</desc>
    <g id="Page-1" stroke="none" stroke-width="1" fill="none" fill-rule="evenodd">
        <g id="wrench">
            <circle id="Oval" fill="#EA3959" cx="252.062" cy="252.652" r="252.062"></circle>
            <path d="M378.092,114.018 C378.092,69.12 354.461,30.523 319.803,8.467 L319.803,111.655 L252.061,160.492 L184.319,111.655 L184.319,8.468 C149.661,30.523 126.03,69.908 126.03,114.019 C126.03,166.007 157.538,210.905 203.224,229.81 L188.258,427.52 C185.107,464.542 215.04,496.049 252.061,496.049 C289.082,496.049 318.227,464.541 315.864,427.52 L300.898,229.809 C345.797,210.905 378.092,166.794 378.092,114.018 Z" id="Path" fill="#E24B71"></path>
            <path d="M252.062,504.714 C210.314,504.714 177.231,469.268 180.382,427.52 L194.56,235.323 C148.086,213.268 118.154,166.794 118.154,114.806 C118.154,69.12 140.997,27.372 179.594,2.166 C181.957,0.591 185.108,0.591 187.471,2.166 C189.834,3.741 191.409,6.104 191.409,9.255 L191.409,108.504 L251.274,151.827 L311.139,108.504 L311.139,8.468 C311.139,5.317 312.714,2.954 315.077,1.379 C317.44,-0.196 320.591,-0.196 322.954,1.379 C361.551,25.797 385.182,68.333 385.182,114.019 C385.182,166.007 355.25,212.481 308.776,234.536 L322.954,426.733 C326.892,469.268 293.809,504.714 252.062,504.714 Z M176.443,24.222 C149.661,46.277 133.908,79.36 133.908,114.807 C133.908,162.069 162.265,205.392 206.376,223.509 C209.527,225.084 211.102,228.235 211.102,231.386 L196.136,429.097 C193.773,461.392 218.979,488.962 252.062,488.962 C284.357,488.962 310.351,461.393 307.988,429.097 L293.022,231.386 C293.022,228.235 294.597,225.084 297.748,223.509 C341.859,205.392 370.216,162.069 370.216,114.807 C370.216,79.361 354.462,46.278 327.681,24.222 L327.681,111.656 C327.681,114.019 326.106,116.382 324.53,117.958 L256.788,166.795 C253.637,169.158 250.486,169.158 247.336,166.795 L179.594,117.958 C177.231,116.383 176.443,114.02 176.443,111.656 L176.443,24.222 Z" id="Shape" fill="#183651" fill-rule="nonzero"></path>
            <path d="M300.898,230.597 C345.796,211.692 378.092,166.794 378.092,114.806 C378.092,69.908 354.461,31.311 319.803,9.255 L319.803,112.443 L252.061,161.28 L184.319,112.443 L184.319,8.468 C149.661,30.523 126.03,69.908 126.03,114.019 C126.03,166.007 157.538,210.905 203.224,229.81" id="Path" fill="#FFFFFF"></path>
            <path d="M300.898,238.474 C297.747,238.474 294.596,236.899 293.809,233.748 C292.234,229.81 293.809,225.083 297.747,223.508 C341.858,205.391 370.215,162.068 370.215,114.806 C370.215,79.36 354.461,46.277 327.68,24.221 L327.68,111.655 C327.68,114.018 326.105,116.381 324.529,117.957 L256.787,166.794 C253.636,169.157 250.485,169.157 247.335,166.794 L179.593,117.957 C177.23,116.382 176.442,114.019 176.442,111.655 L176.442,24.222 C149.66,46.277 133.907,79.36 133.907,114.807 C133.907,162.069 162.264,205.392 206.375,223.509 C210.313,225.084 211.889,229.811 210.313,233.749 C208.737,237.687 204.011,240.051 200.073,237.687 C150.448,216.419 118.153,168.37 118.153,114.807 C118.153,69.121 140.996,27.373 179.593,2.167 C181.956,0.592 185.107,0.592 187.47,2.167 C189.833,3.742 191.408,6.105 191.408,9.256 L191.408,108.505 L251.273,151.828 L311.138,108.505 L311.138,8.468 C311.138,5.317 312.713,2.954 315.076,1.379 C317.439,-0.196 320.59,-0.196 322.953,1.379 C361.55,25.797 385.181,68.333 385.181,114.019 C385.181,167.582 352.886,216.419 303.261,236.899 C302.474,237.686 301.686,238.474 300.898,238.474 Z" id="Path" fill="#183651"></path>
            <polygon id="Path" fill="#CECFD0" points="252.062 114.806 211.102 93.538 211.102 40.763 252.062 62.031"></polygon>
            <polygon id="Path" fill="#E0E4E8" points="252.062 114.806 293.022 93.538 293.022 40.763 252.062 62.031"></polygon>
            <g id="Group" transform="translate(211.000000, 17.000000)" fill="#FFFFFF">
                <polygon id="Path" points="82.022 23.763 41.062 45.031 0.102 23.763 41.062 0.92"></polygon>
                <circle id="Oval" cx="41.062" cy="410.52" r="20.48"></circle>
            </g>
            <path d="M252.062,455.089 C236.308,455.089 223.705,442.486 223.705,426.732 C223.705,410.978 236.308,398.375 252.062,398.375 C267.816,398.375 280.419,410.978 280.419,426.732 C280.419,442.486 267.815,455.089 252.062,455.089 Z M252.062,414.917 C244.973,414.917 239.459,420.431 239.459,427.52 C239.459,434.609 244.973,440.123 252.062,440.123 C259.151,440.123 264.665,434.609 264.665,427.52 C264.665,420.431 259.151,414.917 252.062,414.917 Z" id="Shape" fill="#183651" fill-rule="nonzero"></path>
            <path d="M166.203,310.942 L166.203,285.736 L147.298,283.373 C145.723,277.071 143.36,271.558 140.209,266.044 L152.024,251.078 L133.907,232.961 L118.941,244.776 C113.427,241.625 107.913,239.262 101.612,237.687 L99.249,218.782 L74.043,218.782 L71.68,237.687 C65.378,239.262 59.865,241.625 54.351,244.776 L39.385,232.96 L21.268,251.077 L33.083,266.043 C29.932,271.557 27.569,277.071 25.994,283.372 L7.089,285.735 L7.089,310.941 L25.994,313.304 C27.569,319.606 29.932,325.119 33.083,330.633 L21.268,345.6 L39.385,363.717 L54.351,351.902 C59.865,355.053 65.379,357.416 71.68,358.991 L74.043,377.896 L99.249,377.896 L101.612,358.991 C107.914,357.416 113.427,355.053 118.941,351.902 L133.907,363.717 L152.024,345.6 L140.209,330.634 C143.36,325.12 145.723,319.606 147.298,313.305 L166.203,310.942 Z" id="Path" fill="#FFFFFF"></path>
            <path d="M100.037,384.985 L74.043,384.985 C70.105,384.985 66.954,381.834 66.166,377.896 L64.591,364.505 C61.44,363.717 58.289,362.142 55.139,360.567 L44.111,369.232 C40.96,371.595 36.234,371.595 33.871,368.444 L16.542,351.115 C13.391,347.964 13.391,344.026 15.754,340.875 L24.419,329.847 C22.844,326.696 22.056,323.545 20.481,320.395 L7.09,318.82 C3.151,318.031 0,314.88 0,310.942 L0,285.736 C0,281.798 3.151,278.647 7.089,277.859 L20.48,276.284 C21.268,273.133 22.843,269.982 24.418,266.832 L15.753,256.592 C13.39,253.441 13.39,248.715 16.541,246.352 L34.658,228.235 C37.021,225.084 41.747,225.084 44.898,227.447 L55.926,236.112 C59.077,234.537 62.228,233.749 65.378,232.174 L66.953,218.783 C67.741,214.845 70.891,211.694 74.83,211.694 L100.036,211.694 C103.974,211.694 107.125,214.845 107.913,218.783 L109.488,232.174 C112.639,232.962 115.79,234.537 118.94,236.112 L129.968,227.447 C133.119,225.084 137.845,225.084 140.208,228.235 L158.325,246.352 C161.476,249.503 161.476,253.441 159.113,256.592 L150.448,267.62 C152.023,270.771 152.811,273.922 154.386,277.072 L167.777,278.647 C171.715,279.435 174.866,282.585 174.866,286.524 L174.866,311.73 C174.866,315.668 171.715,318.819 167.777,319.607 L153.599,320.395 C152.811,323.546 151.236,326.697 149.661,329.847 L158.326,340.875 C160.689,344.026 160.689,348.752 157.538,351.115 L139.421,369.232 C136.27,372.383 132.332,372.383 129.181,370.02 L118.153,361.355 C115.002,362.93 111.851,363.718 108.701,365.293 L107.126,378.684 C107.126,382.622 103.975,384.985 100.037,384.985 Z M81.132,369.231 L92.947,369.231 L94.522,357.416 C95.31,354.265 96.885,351.114 100.824,350.327 C106.338,348.752 111.064,347.176 115.79,344.025 C118.941,342.45 122.092,342.45 124.455,344.813 L133.907,351.902 L141.784,344.025 L133.907,335.36 C131.544,332.997 131.544,329.058 133.119,326.695 C136.27,321.969 137.845,317.243 139.421,311.729 C140.209,308.578 142.572,306.215 146.51,305.427 L158.325,303.852 L158.325,292.037 L146.51,290.462 C143.359,290.462 140.208,288.099 139.421,284.16 C137.846,278.646 136.27,273.92 133.119,269.194 C131.544,266.043 131.544,262.892 133.907,260.529 L140.996,251.077 L133.119,243.2 L123.667,250.289 C121.304,252.652 117.365,252.652 115.002,251.077 C110.276,247.926 105.55,246.351 100.036,244.775 C96.885,243.987 94.522,241.624 93.734,237.686 L92.159,225.871 L80.345,225.871 L78.77,237.686 C77.982,240.837 76.407,243.988 72.468,244.775 C68.53,247.138 63.803,248.713 59.077,251.864 C55.926,253.439 52.775,253.439 50.412,251.076 L40.96,243.987 L33.083,251.864 L40.172,261.316 C42.535,263.679 42.535,267.618 40.96,269.981 C37.809,274.707 35.446,280.221 34.658,284.947 C33.87,288.098 30.72,290.461 27.569,291.249 L15.754,292.824 L15.754,303.852 L27.569,305.427 C30.72,306.215 33.871,307.79 34.658,311.729 C36.233,317.243 37.809,321.969 40.96,326.695 C42.535,329.846 42.535,332.997 40.172,335.36 L33.083,344.812 L40.96,352.689 L50.412,345.6 C52.775,343.237 55.926,343.237 59.077,344.812 C63.803,347.963 68.529,349.538 74.043,351.114 C77.194,351.902 79.557,354.265 80.345,358.203 L81.132,369.231 Z" id="Shape" fill="#183651" fill-rule="nonzero"></path>
            <circle id="Oval" fill="#E24B71" cx="86.646" cy="298.338" r="40.96"></circle>
            <circle id="Oval" fill="#FFFFFF" cx="86.646" cy="298.338" r="15.754"></circle>
            <path d="M86.646,321.969 C73.255,321.969 63.015,310.941 63.015,298.338 C63.015,285.735 74.043,274.707 86.646,274.707 C99.249,274.707 110.277,285.735 110.277,298.338 C110.277,310.942 100.037,321.969 86.646,321.969 Z M86.646,290.462 C81.92,290.462 78.769,294.4 78.769,298.339 C78.769,302.277 82.707,306.216 86.646,306.216 C90.585,306.216 94.523,302.278 94.523,298.339 C94.523,294.4 91.372,290.462 86.646,290.462 Z" id="Shape" fill="#183651" fill-rule="nonzero"></path>
            <path d="M496.246,310.942 L496.246,285.736 L477.341,283.373 C475.766,277.071 473.403,271.558 470.252,266.044 L482.067,251.078 L463.95,232.961 L448.984,244.776 C443.47,241.625 437.956,239.262 431.655,237.687 L429.292,218.782 L404.086,218.782 L401.723,237.687 C395.421,239.262 389.908,241.625 384.394,244.776 L369.428,232.961 L351.311,251.078 L363.126,266.044 C359.975,271.558 357.612,277.072 356.037,283.373 L337.132,285.736 L337.132,310.942 L356.037,313.305 C357.612,319.607 359.975,325.12 363.126,330.634 L351.311,345.6 L369.428,363.717 L384.394,351.902 C389.908,355.053 395.422,357.416 401.723,358.991 L404.086,377.896 L429.292,377.896 L431.655,358.991 C437.957,357.416 443.47,355.053 448.984,351.902 L463.95,363.717 L482.067,345.6 L470.252,330.634 C473.403,325.12 475.766,319.606 477.341,313.305 L496.246,310.942 Z" id="Path" fill="#FFFFFF"></path>
            <path d="M430.08,384.985 L404.874,384.985 C400.936,384.985 397.785,381.834 396.997,377.896 L395.422,364.505 C392.271,363.717 389.12,362.142 385.97,360.567 L374.942,369.232 C371.791,371.595 367.065,371.595 364.702,368.444 L346.585,351.115 C343.434,347.964 343.434,344.026 345.797,340.875 L354.462,329.847 C352.887,326.696 352.099,323.545 350.524,320.395 L337.133,318.82 C333.195,318.032 330.044,314.882 330.044,310.943 L330.044,285.737 C330.044,281.799 333.195,278.648 337.133,277.86 L350.524,276.285 C351.312,273.134 352.887,269.983 354.462,266.833 L345.797,256.593 C343.434,253.442 343.434,248.716 346.585,246.353 L364.702,228.236 C367.853,225.085 371.791,225.085 374.942,227.448 L385.97,236.113 C389.121,234.538 392.272,233.75 395.422,232.175 L396.997,218.784 C397.785,214.846 400.935,211.695 404.874,211.695 L430.08,211.695 C434.018,211.695 437.169,214.846 437.957,218.784 L439.532,232.175 C442.683,232.963 445.834,234.538 448.984,236.113 L460.012,227.448 C463.163,225.085 467.889,225.085 470.252,228.236 L488.369,246.353 C491.52,249.504 491.52,253.442 489.157,256.593 L480.492,267.621 C482.067,270.772 482.855,273.923 484.43,277.073 L497.821,278.648 C501.759,279.436 504.91,282.586 504.91,286.525 L504.91,311.731 C504.91,315.669 501.759,318.82 497.821,319.608 L484.43,321.183 C483.642,324.334 482.067,327.485 480.492,330.635 L489.157,341.663 C491.52,344.814 491.52,349.54 488.369,351.903 L470.252,370.02 C467.101,373.171 463.163,373.171 460.012,370.808 L448.984,362.143 C445.833,363.718 442.682,364.506 439.532,366.081 L437.957,379.472 C437.169,382.622 434.018,384.985 430.08,384.985 Z M411.175,369.231 L422.99,369.231 L424.565,357.416 C425.353,354.265 426.928,351.114 430.867,350.327 C436.381,348.752 441.107,347.176 445.833,344.025 C448.984,342.45 452.135,342.45 454.498,344.813 L463.95,351.902 L471.827,344.025 L463.95,335.36 C461.587,332.997 461.587,329.058 463.162,326.695 C466.313,321.969 467.888,317.243 469.464,311.729 C470.252,308.578 472.615,306.215 476.553,305.427 L488.368,303.852 L488.368,292.037 L476.553,291.249 C473.402,291.249 470.251,288.886 469.464,284.947 C467.889,279.433 466.313,274.707 463.162,269.981 C461.587,266.83 461.587,263.679 463.95,261.316 L471.039,251.864 L463.162,243.987 L453.71,251.076 C451.347,253.439 447.408,253.439 445.045,251.864 C440.319,248.713 435.593,247.138 430.079,245.562 C426.928,244.774 424.565,242.411 423.777,238.473 L422.202,226.658 L410.387,226.658 L408.812,238.473 C408.812,241.624 406.449,244.775 402.51,245.562 C396.996,247.137 392.27,248.713 387.544,251.864 C384.393,253.439 381.242,253.439 378.879,251.076 L369.427,243.987 L361.55,251.864 L368.639,261.316 C371.002,263.679 371.002,267.618 369.427,269.981 C366.276,274.707 364.701,279.433 363.125,284.947 C362.337,288.098 359.974,290.461 356.036,291.249 L344.221,292.824 L344.221,303.852 L356.036,305.427 C359.187,306.215 362.338,307.79 363.125,311.729 C364.7,317.243 366.276,321.969 369.427,326.695 C371.002,329.846 371.002,332.997 368.639,335.36 L361.55,344.812 L369.427,352.689 L378.879,345.6 C381.242,343.237 385.181,343.237 387.544,344.812 C392.27,347.963 396.996,349.538 402.51,351.114 C405.661,351.902 408.024,354.265 408.812,358.203 L411.175,369.231 Z" id="Shape" fill="#183651" fill-rule="nonzero"></path>
            <circle id="Oval" fill="#E24B71" cx="417.477" cy="298.338" r="40.96"></circle>
            <circle id="Oval" fill="#FFFFFF" cx="417.477" cy="298.338" r="15.754"></circle>
            <g id="Group" transform="translate(244.000000, 273.000000)" fill="#183651">
                <path d="M173.477,48.969 C160.086,48.969 149.846,37.941 149.846,25.338 C149.846,12.735 160.874,1.707 173.477,1.707 C186.08,1.707 197.108,12.735 197.108,25.338 C197.108,37.942 186.08,48.969 173.477,48.969 Z M173.477,17.462 C168.751,17.462 165.6,21.4 165.6,25.339 C165.6,29.277 169.538,33.216 173.477,33.216 C177.415,33.216 181.354,29.278 181.354,25.339 C181.354,21.4 177.415,17.462 173.477,17.462 Z" id="Shape" fill-rule="nonzero"></path>
                <rect id="Rectangle" x="0.185" y="0.92" width="15.754" height="15.754"></rect>
                <rect id="Rectangle" x="0.185" y="41.092" width="15.754" height="15.754"></rect>
                <rect id="Rectangle" x="0.185" y="81.265" width="15.754" height="15.754"></rect>
            </g>
        </g>
    </g>
</svg>